<svg width="40" height="40" viewBox="0 0 40 40" fill="none" xmlns="http://www.w3.org/2000/svg">
<rect width="40" height="40" rx="20" fill="#F6F6F6"/>
<path fill-rule="evenodd" clip-rule="evenodd" d="M27 29H13C11.8954 29 11 28.1046 11 27V13C11 11.8954 11.8954 11 13 11H27C28.1046 11 29 11.8954 29 13V27C29 28.1046 28.1046 29 27 29ZM23.9762 26.75H26.75V21.0518C26.75 18.6408 25.3833 17.475 23.4743 17.475C21.5645 17.475 20.7607 18.9623 20.7607 18.9623V17.75H18.0875V26.75H20.7607V22.0255C20.7607 20.7597 21.3434 20.0064 22.4587 20.0064C23.484 20.0064 23.9762 20.7302 23.9762 22.0255V26.75ZM13.25 14.9108C13.25 15.8279 13.9878 16.5715 14.8984 16.5715C15.8089 16.5715 16.5463 15.8279 16.5463 14.9108C16.5463 13.9936 15.8089 13.25 14.8984 13.25C13.9878 13.25 13.25 13.9936 13.25 14.9108ZM16.3055 26.75H13.5181V17.75H16.3055V26.75Z" fill="#33617A"/>
</svg>
