<svg width="46" height="59" viewBox="0 0 46 59" fill="none" xmlns="http://www.w3.org/2000/svg">
<g clip-path="url(#clip0_676_1383)">
<path d="M0 41.3595C0 44.6217 1.28847 47.5749 3.37175 49.715C5.45503 51.8526 8.33312 53.1747 11.5148 53.1747V29.5418C5.15636 29.5418 0 34.8327 0 41.3595Z" fill="#5FB8A9"/>
<path d="M11.5173 11.8177C11.5173 8.55304 10.2288 5.59987 8.14306 3.46224C6.05978 1.32209 3.18169 0 0 0V11.8177C0 18.342 5.15636 23.6355 11.5173 23.6355V11.8177Z" fill="#5FB8A9"/>
<path d="M28.751 0.0303955C22.3999 0.0303955 17.251 5.31368 17.251 11.8304V23.6304H28.751C35.102 23.6304 40.251 18.3471 40.251 11.8304C40.251 5.31368 35.102 0.0303955 28.751 0.0303955Z" fill="#5FB8A9"/>
<path d="M31.6246 29.4987H17.249V44.2494C17.249 52.3946 23.684 59 31.6246 59C39.5628 59 46.0003 52.3972 46.0003 44.2494C46.0003 36.1041 39.5653 29.4987 31.6246 29.4987Z" fill="#5FB8A9"/>
</g>
<defs>
<clipPath id="clip0_676_1383">
<rect width="46" height="59" fill="white"/>
</clipPath>
</defs>
</svg>
