<svg width="610" height="361" viewBox="0 0 610 361" fill="none" xmlns="http://www.w3.org/2000/svg">
<rect x="229" width="203" height="203" rx="101.5" fill="url(#paint0_linear_843_1540)"/>
<path d="M285.28 115.5V112.7C285.28 111.82 285.453 110.953 285.8 110.1C286.173 109.22 286.693 108.353 287.36 107.5C288.053 106.647 288.893 105.847 289.88 105.1L295.68 100.74C296.373 100.26 296.973 99.7133 297.48 99.1C298.013 98.46 298.427 97.8067 298.72 97.14C299.013 96.4467 299.16 95.78 299.16 95.14C299.16 94.2067 298.933 93.3667 298.48 92.62C298.027 91.8467 297.387 91.2333 296.56 90.78C295.733 90.3267 294.76 90.1 293.64 90.1C292.547 90.1 291.587 90.3133 290.76 90.74C289.933 91.14 289.253 91.6867 288.72 92.38C288.187 93.0467 287.8 93.7667 287.56 94.54L284.12 93.86C284.44 92.66 285.013 91.54 285.84 90.5C286.693 89.46 287.773 88.62 289.08 87.98C290.387 87.34 291.84 87.02 293.44 87.02C295.307 87.02 296.92 87.38 298.28 88.1C299.64 88.7933 300.693 89.7533 301.44 90.98C302.213 92.18 302.6 93.5533 302.6 95.1C302.6 96.5667 302.2 97.9533 301.4 99.26C300.6 100.567 299.44 101.833 297.92 103.06L292.44 107.22C291.373 108.02 290.547 108.86 289.96 109.74C289.4 110.62 289.08 111.54 289 112.5H303V115.5H285.28ZM316.544 115.98C315.424 115.98 314.277 115.82 313.104 115.5C311.957 115.153 310.864 114.633 309.824 113.94C308.81 113.247 307.97 112.353 307.304 111.26L310.024 109.7C310.957 110.873 311.97 111.727 313.064 112.26C314.157 112.793 315.29 113.06 316.464 113.06C318.304 113.06 319.797 112.5 320.944 111.38C322.117 110.233 322.704 108.74 322.704 106.9C322.704 105.087 322.144 103.607 321.024 102.46C319.904 101.313 318.437 100.74 316.624 100.74C315.637 100.74 314.664 100.967 313.704 101.42C312.744 101.847 311.997 102.38 311.464 103.02L308.424 102.3L309.784 87.5H324.704V90.54H312.784L311.944 99.46C312.69 99.0067 313.517 98.6467 314.424 98.38C315.33 98.1133 316.25 97.98 317.184 97.98C318.89 97.98 320.41 98.3533 321.744 99.1C323.077 99.8467 324.13 100.887 324.904 102.22C325.677 103.553 326.064 105.087 326.064 106.82C326.064 108.633 325.65 110.233 324.824 111.62C324.024 112.98 322.904 114.047 321.464 114.82C320.05 115.593 318.41 115.98 316.544 115.98ZM340.352 115.98C338.218 115.98 336.325 115.367 334.672 114.14C333.018 112.887 331.725 111.18 330.792 109.02C329.858 106.833 329.392 104.327 329.392 101.5C329.392 98.6733 329.858 96.18 330.792 94.02C331.725 91.8333 333.005 90.1267 334.632 88.9C336.285 87.6467 338.192 87.02 340.352 87.02C342.512 87.02 344.405 87.6467 346.032 88.9C347.685 90.1267 348.978 91.8333 349.912 94.02C350.872 96.18 351.352 98.6733 351.352 101.5C351.352 104.327 350.885 106.833 349.952 109.02C349.018 111.18 347.725 112.887 346.072 114.14C344.418 115.367 342.512 115.98 340.352 115.98ZM340.352 112.94C341.845 112.94 343.165 112.447 344.312 111.46C345.485 110.473 346.392 109.127 347.032 107.42C347.698 105.713 348.032 103.74 348.032 101.5C348.032 99.26 347.698 97.2867 347.032 95.58C346.392 93.8467 345.485 92.5 344.312 91.54C343.165 90.5533 341.845 90.06 340.352 90.06C338.858 90.06 337.538 90.5533 336.392 91.54C335.245 92.5 334.338 93.8467 333.672 95.58C333.032 97.2867 332.712 99.26 332.712 101.5C332.712 103.74 333.032 105.713 333.672 107.42C334.338 109.127 335.245 110.473 336.392 111.46C337.565 112.447 338.885 112.94 340.352 112.94ZM363.857 112.66V94.5H366.697V112.66H363.857ZM356.177 105.02V102.18H374.297V105.02H356.177Z" fill="#222222"/>
<rect x="155.5" y="130.5" width="165" height="165" rx="82.5" fill="#85CDDD"/>
<rect x="155.5" y="130.5" width="165" height="165" rx="82.5" stroke="white" stroke-width="3"/>
<path d="M205.28 227V224.2C205.28 223.32 205.453 222.453 205.8 221.6C206.173 220.72 206.693 219.853 207.36 219C208.053 218.147 208.893 217.347 209.88 216.6L215.68 212.24C216.373 211.76 216.973 211.213 217.48 210.6C218.013 209.96 218.427 209.307 218.72 208.64C219.013 207.947 219.16 207.28 219.16 206.64C219.16 205.707 218.933 204.867 218.48 204.12C218.027 203.347 217.387 202.733 216.56 202.28C215.733 201.827 214.76 201.6 213.64 201.6C212.547 201.6 211.587 201.813 210.76 202.24C209.933 202.64 209.253 203.187 208.72 203.88C208.187 204.547 207.8 205.267 207.56 206.04L204.12 205.36C204.44 204.16 205.013 203.04 205.84 202C206.693 200.96 207.773 200.12 209.08 199.48C210.387 198.84 211.84 198.52 213.44 198.52C215.307 198.52 216.92 198.88 218.28 199.6C219.64 200.293 220.693 201.253 221.44 202.48C222.213 203.68 222.6 205.053 222.6 206.6C222.6 208.067 222.2 209.453 221.4 210.76C220.6 212.067 219.44 213.333 217.92 214.56L212.44 218.72C211.373 219.52 210.547 220.36 209.96 221.24C209.4 222.12 209.08 223.04 209 224H223V227H205.28ZM236.544 227.48C235.424 227.48 234.277 227.32 233.104 227C231.957 226.653 230.864 226.133 229.824 225.44C228.81 224.747 227.97 223.853 227.304 222.76L230.024 221.2C230.957 222.373 231.97 223.227 233.064 223.76C234.157 224.293 235.29 224.56 236.464 224.56C238.304 224.56 239.797 224 240.944 222.88C242.117 221.733 242.704 220.24 242.704 218.4C242.704 216.587 242.144 215.107 241.024 213.96C239.904 212.813 238.437 212.24 236.624 212.24C235.637 212.24 234.664 212.467 233.704 212.92C232.744 213.347 231.997 213.88 231.464 214.52L228.424 213.8L229.784 199H244.704V202.04H232.784L231.944 210.96C232.69 210.507 233.517 210.147 234.424 209.88C235.33 209.613 236.25 209.48 237.184 209.48C238.89 209.48 240.41 209.853 241.744 210.6C243.077 211.347 244.13 212.387 244.904 213.72C245.677 215.053 246.064 216.587 246.064 218.32C246.064 220.133 245.65 221.733 244.824 223.12C244.024 224.48 242.904 225.547 241.464 226.32C240.05 227.093 238.41 227.48 236.544 227.48ZM258.632 224.16V206H261.472V224.16H258.632ZM250.952 216.52V213.68H269.072V216.52H250.952Z" fill="#222222"/>
<rect x="248.5" y="253.5" width="106" height="106" rx="53" fill="url(#paint1_linear_843_1540)"/>
<rect x="248.5" y="253.5" width="106" height="106" rx="53" stroke="white" stroke-width="3"/>
<path d="M278.18 320.5V294.3L278.46 292.5H281.5V320.5H278.18ZM271.9 299.7V296.62C272.46 296.647 273.127 296.46 273.9 296.06C274.673 295.66 275.473 295.14 276.3 294.5C277.127 293.86 277.847 293.193 278.46 292.5L280.54 294.78C279.66 295.713 278.74 296.553 277.78 297.3C276.82 298.047 275.847 298.647 274.86 299.1C273.873 299.527 272.887 299.727 271.9 299.7ZM297.223 320.98C296.103 320.98 294.957 320.82 293.783 320.5C292.637 320.153 291.543 319.633 290.503 318.94C289.49 318.247 288.65 317.353 287.983 316.26L290.703 314.7C291.637 315.873 292.65 316.727 293.743 317.26C294.837 317.793 295.97 318.06 297.143 318.06C298.983 318.06 300.477 317.5 301.623 316.38C302.797 315.233 303.383 313.74 303.383 311.9C303.383 310.087 302.823 308.607 301.703 307.46C300.583 306.313 299.117 305.74 297.303 305.74C296.317 305.74 295.343 305.967 294.383 306.42C293.423 306.847 292.677 307.38 292.143 308.02L289.103 307.3L290.463 292.5H305.383V295.54H293.463L292.623 304.46C293.37 304.007 294.197 303.647 295.103 303.38C296.01 303.113 296.93 302.98 297.863 302.98C299.57 302.98 301.09 303.353 302.423 304.1C303.757 304.847 304.81 305.887 305.583 307.22C306.357 308.553 306.743 310.087 306.743 311.82C306.743 313.633 306.33 315.233 305.503 316.62C304.703 317.98 303.583 319.047 302.143 319.82C300.73 320.593 299.09 320.98 297.223 320.98ZM319.311 317.66V299.5H322.151V317.66H319.311ZM311.631 310.02V307.18H329.751V310.02H311.631Z" fill="#222222"/>
<path d="M275 72L576.5 72" stroke="#222222" stroke-width="0.5"/>
<path d="M0 181L269 181" stroke="#222222" stroke-width="0.5"/>
<path d="M46 276L330 276" stroke="#222222" stroke-width="0.5"/>
<path d="M459.237 92L454.741 80.8H456.101L460.661 92H459.237ZM450.133 92L454.693 80.8H456.069L451.573 92H450.133ZM452.293 88.816V87.6H458.517V88.816H452.293ZM462.482 87.664C462.482 86.8 462.647 86.1013 462.978 85.568C463.308 85.024 463.73 84.624 464.242 84.368C464.764 84.1013 465.314 83.968 465.89 83.968V85.168C465.42 85.168 464.967 85.248 464.53 85.408C464.103 85.5573 463.751 85.808 463.474 86.16C463.196 86.512 463.058 86.992 463.058 87.6L462.482 87.664ZM461.778 92V84H463.058V92H461.778ZM470.032 92.192C469.253 92.192 468.65 91.9893 468.224 91.584C467.797 91.1787 467.584 90.608 467.584 89.872V81.504H468.864V89.744C468.864 90.1493 468.97 90.464 469.184 90.688C469.408 90.9013 469.717 91.008 470.112 91.008C470.24 91.008 470.362 90.992 470.48 90.96C470.608 90.9173 470.773 90.8213 470.976 90.672L471.472 91.712C471.194 91.8933 470.944 92.016 470.72 92.08C470.496 92.1547 470.266 92.192 470.032 92.192ZM466.192 85.136V84H471.264V85.136H466.192ZM472.991 92V84H474.271V92H472.991ZM473.647 82.144C473.433 82.144 473.247 82.064 473.087 81.904C472.927 81.744 472.847 81.5573 472.847 81.344C472.847 81.12 472.927 80.9333 473.087 80.784C473.247 80.624 473.433 80.544 473.647 80.544C473.871 80.544 474.057 80.624 474.207 80.784C474.367 80.9333 474.447 81.12 474.447 81.344C474.447 81.5573 474.367 81.744 474.207 81.904C474.057 82.064 473.871 82.144 473.647 82.144ZM479.669 95.392C479.157 95.392 478.688 95.3387 478.261 95.232C477.845 95.136 477.488 95.024 477.189 94.896C476.901 94.7787 476.693 94.6773 476.565 94.592L477.045 93.552C477.184 93.6267 477.381 93.7173 477.637 93.824C477.893 93.9413 478.192 94.0373 478.533 94.112C478.885 94.1973 479.259 94.24 479.653 94.24C480.165 94.24 480.624 94.1333 481.029 93.92C481.445 93.7173 481.765 93.392 481.989 92.944C482.224 92.5067 482.341 91.9413 482.341 91.248V84H483.621V91.232C483.621 92.1493 483.451 92.9173 483.109 93.536C482.768 94.1547 482.299 94.6187 481.701 94.928C481.104 95.2373 480.427 95.392 479.669 95.392ZM479.621 91.936C478.907 91.936 478.277 91.7653 477.733 91.424C477.189 91.0827 476.763 90.608 476.453 90C476.155 89.3813 476.005 88.6773 476.005 87.888C476.005 87.0773 476.155 86.368 476.453 85.76C476.763 85.1413 477.189 84.6613 477.733 84.32C478.277 83.9787 478.907 83.808 479.621 83.808C480.293 83.808 480.88 83.9787 481.381 84.32C481.883 84.6613 482.272 85.1413 482.549 85.76C482.837 86.368 482.981 87.0773 482.981 87.888C482.981 88.688 482.837 89.392 482.549 90C482.272 90.608 481.883 91.0827 481.381 91.424C480.88 91.7653 480.293 91.936 479.621 91.936ZM479.925 90.832C480.395 90.832 480.811 90.704 481.173 90.448C481.536 90.192 481.819 89.8453 482.021 89.408C482.224 88.96 482.325 88.4427 482.325 87.856C482.325 87.2907 482.219 86.7893 482.005 86.352C481.803 85.904 481.52 85.5573 481.157 85.312C480.805 85.056 480.389 84.928 479.909 84.928C479.408 84.928 478.96 85.056 478.565 85.312C478.181 85.5573 477.877 85.904 477.653 86.352C477.44 86.7893 477.333 87.2907 477.333 87.856C477.333 88.4427 477.445 88.96 477.669 89.408C477.893 89.8453 478.197 90.192 478.581 90.448C478.976 90.704 479.424 90.832 479.925 90.832ZM489.236 92.192C488.457 92.192 487.764 92.016 487.156 91.664C486.559 91.3013 486.089 90.8053 485.748 90.176C485.407 89.5467 485.236 88.8213 485.236 88C485.236 87.1787 485.401 86.4533 485.732 85.824C486.073 85.1947 486.543 84.704 487.14 84.352C487.748 83.9893 488.436 83.808 489.204 83.808C489.993 83.808 490.687 83.9893 491.284 84.352C491.892 84.704 492.361 85.1947 492.692 85.824C493.033 86.4533 493.204 87.1787 493.204 88C493.204 88.8213 493.033 89.5467 492.692 90.176C492.361 90.8053 491.897 91.3013 491.3 91.664C490.703 92.016 490.015 92.192 489.236 92.192ZM489.236 91.008C489.769 91.008 490.233 90.88 490.628 90.624C491.023 90.368 491.332 90.016 491.556 89.568C491.791 89.12 491.908 88.5973 491.908 88C491.908 87.4027 491.791 86.88 491.556 86.432C491.332 85.984 491.017 85.632 490.612 85.376C490.207 85.12 489.737 84.992 489.204 84.992C488.681 84.992 488.217 85.12 487.812 85.376C487.417 85.632 487.103 85.984 486.868 86.432C486.644 86.88 486.532 87.4027 486.532 88C486.532 88.5867 486.644 89.1093 486.868 89.568C487.103 90.016 487.423 90.368 487.828 90.624C488.244 90.88 488.713 91.008 489.236 91.008ZM497.621 92.192C497.035 92.192 496.523 92.1067 496.085 91.936C495.648 91.7547 495.28 91.52 494.981 91.232C494.693 90.944 494.485 90.6293 494.357 90.288L495.477 89.824C495.659 90.1867 495.931 90.48 496.293 90.704C496.656 90.928 497.056 91.04 497.493 91.04C497.995 91.04 498.416 90.944 498.757 90.752C499.099 90.5493 499.269 90.2667 499.269 89.904C499.269 89.5733 499.141 89.3067 498.885 89.104C498.64 88.9013 498.272 88.736 497.781 88.608L497.013 88.4C496.288 88.208 495.723 87.92 495.317 87.536C494.912 87.1413 494.709 86.6987 494.709 86.208C494.709 85.4507 494.955 84.864 495.445 84.448C495.947 84.0213 496.688 83.808 497.669 83.808C498.139 83.808 498.565 83.8773 498.949 84.016C499.333 84.1547 499.664 84.352 499.941 84.608C500.219 84.8533 500.421 85.1467 500.549 85.488L499.429 85.984C499.291 85.6213 499.061 85.36 498.741 85.2C498.421 85.04 498.032 84.96 497.573 84.96C497.083 84.96 496.699 85.0667 496.421 85.28C496.144 85.4827 496.005 85.7707 496.005 86.144C496.005 86.3573 496.117 86.56 496.341 86.752C496.576 86.9333 496.917 87.0827 497.365 87.2L498.165 87.408C498.688 87.536 499.125 87.728 499.477 87.984C499.829 88.2293 500.096 88.512 500.277 88.832C500.459 89.152 500.549 89.4933 500.549 89.856C500.549 90.336 500.421 90.752 500.165 91.104C499.909 91.456 499.563 91.728 499.125 91.92C498.688 92.1013 498.187 92.192 497.621 92.192ZM509.476 92.192C508.686 92.192 507.988 92.016 507.38 91.664C506.772 91.3013 506.297 90.8053 505.956 90.176C505.614 89.5467 505.444 88.8213 505.444 88C505.444 87.1787 505.609 86.4533 505.94 85.824C506.281 85.1947 506.756 84.704 507.364 84.352C507.972 83.9893 508.665 83.808 509.444 83.808C510.212 83.808 510.9 83.984 511.508 84.336C512.116 84.688 512.58 85.184 512.9 85.824L511.732 86.352C511.518 85.9253 511.209 85.5947 510.804 85.36C510.398 85.1147 509.934 84.992 509.412 84.992C508.889 84.992 508.425 85.12 508.02 85.376C507.625 85.632 507.31 85.9893 507.076 86.448C506.852 86.896 506.74 87.4133 506.74 88C506.74 88.5867 506.852 89.1093 507.076 89.568C507.31 90.016 507.63 90.368 508.036 90.624C508.452 90.88 508.921 91.008 509.444 91.008C509.966 91.008 510.43 90.8747 510.836 90.608C511.252 90.3413 511.566 89.968 511.78 89.488L512.948 90.016C512.628 90.6987 512.164 91.232 511.556 91.616C510.948 92 510.254 92.192 509.476 92.192ZM514.484 92V84H515.764V92H514.484ZM515.14 82.144C514.926 82.144 514.74 82.064 514.58 81.904C514.42 81.744 514.34 81.5573 514.34 81.344C514.34 81.12 514.42 80.9333 514.58 80.784C514.74 80.624 514.926 80.544 515.14 80.544C515.364 80.544 515.55 80.624 515.7 80.784C515.86 80.9333 515.94 81.12 515.94 81.344C515.94 81.5573 515.86 81.744 515.7 81.904C515.55 82.064 515.364 82.144 515.14 82.144ZM521.467 92.192C520.688 92.192 520 92.016 519.403 91.664C518.805 91.3013 518.336 90.8053 517.995 90.176C517.664 89.5467 517.499 88.8213 517.499 88C517.499 87.1787 517.664 86.4533 517.995 85.824C518.336 85.1947 518.8 84.704 519.387 84.352C519.984 83.9893 520.667 83.808 521.435 83.808C522.181 83.808 522.827 83.9947 523.371 84.368C523.915 84.7307 524.336 85.2427 524.635 85.904C524.933 86.5653 525.083 87.344 525.083 88.24H518.475L518.795 87.968C518.795 88.608 518.907 89.1573 519.131 89.616C519.365 90.0747 519.691 90.4267 520.107 90.672C520.523 90.9067 520.997 91.024 521.531 91.024C522.096 91.024 522.571 90.8907 522.955 90.624C523.349 90.3573 523.653 90.0053 523.867 89.568L524.971 90.128C524.768 90.544 524.496 90.9067 524.155 91.216C523.824 91.5253 523.429 91.7653 522.971 91.936C522.523 92.1067 522.021 92.192 521.467 92.192ZM518.875 87.424L518.539 87.168H524.059L523.723 87.44C523.723 86.928 523.621 86.4853 523.419 86.112C523.216 85.7387 522.944 85.4507 522.603 85.248C522.261 85.0453 521.867 84.944 521.419 84.944C520.981 84.944 520.565 85.0453 520.171 85.248C519.787 85.4507 519.472 85.7387 519.227 86.112C518.992 86.4747 518.875 86.912 518.875 87.424ZM526.537 92V84H527.737L527.817 85.472V92H526.537ZM532.153 92V87.904H533.433V92H532.153ZM532.153 87.904C532.153 87.1147 532.062 86.512 531.881 86.096C531.7 85.68 531.449 85.3973 531.129 85.248C530.809 85.088 530.446 85.008 530.041 85.008C529.337 85.008 528.788 85.2587 528.393 85.76C528.009 86.2507 527.817 86.9493 527.817 87.856H527.193C527.193 87.0133 527.316 86.288 527.561 85.68C527.806 85.072 528.164 84.608 528.633 84.288C529.102 83.968 529.668 83.808 530.329 83.808C530.958 83.808 531.502 83.936 531.961 84.192C532.43 84.4373 532.793 84.832 533.049 85.376C533.316 85.92 533.444 86.6347 533.433 87.52V87.904H532.153ZM538.307 92.192C537.528 92.192 536.925 91.9893 536.499 91.584C536.072 91.1787 535.859 90.608 535.859 89.872V81.504H537.139V89.744C537.139 90.1493 537.245 90.464 537.459 90.688C537.683 90.9013 537.992 91.008 538.387 91.008C538.515 91.008 538.637 90.992 538.755 90.96C538.883 90.9173 539.048 90.8213 539.251 90.672L539.747 91.712C539.469 91.8933 539.219 92.016 538.995 92.08C538.771 92.1547 538.541 92.192 538.307 92.192ZM534.467 85.136V84H539.539V85.136H534.467ZM541.266 92V84H542.546V92H541.266ZM540.834 82.864L542.706 80.8H544.354L542.29 82.864H540.834ZM545.544 92V83.088C545.544 82.256 545.736 81.632 546.12 81.216C546.515 80.7893 547.112 80.576 547.912 80.576C548.126 80.576 548.366 80.6133 548.632 80.688C548.899 80.7627 549.182 80.8693 549.48 81.008L549 82.016C548.755 81.92 548.547 81.8453 548.376 81.792C548.206 81.7387 548.062 81.712 547.944 81.712C547.571 81.712 547.288 81.8347 547.096 82.08C546.915 82.3147 546.824 82.6827 546.824 83.184V92H545.544ZM544.072 85.104V84H549.144V85.104H544.072ZM550.571 92V84H551.851V92H550.571ZM551.227 82.144C551.013 82.144 550.827 82.064 550.667 81.904C550.507 81.744 550.427 81.5573 550.427 81.344C550.427 81.12 550.507 80.9333 550.667 80.784C550.827 80.624 551.013 80.544 551.227 80.544C551.451 80.544 551.637 80.624 551.787 80.784C551.947 80.9333 552.027 81.12 552.027 81.344C552.027 81.5573 551.947 81.744 551.787 81.904C551.637 82.064 551.451 82.144 551.227 82.144ZM557.617 92.192C556.828 92.192 556.129 92.016 555.521 91.664C554.913 91.3013 554.439 90.8053 554.097 90.176C553.756 89.5467 553.585 88.8213 553.585 88C553.585 87.1787 553.751 86.4533 554.081 85.824C554.423 85.1947 554.897 84.704 555.505 84.352C556.113 83.9893 556.807 83.808 557.585 83.808C558.353 83.808 559.041 83.984 559.649 84.336C560.257 84.688 560.721 85.184 561.041 85.824L559.873 86.352C559.66 85.9253 559.351 85.5947 558.945 85.36C558.54 85.1147 558.076 84.992 557.553 84.992C557.031 84.992 556.567 85.12 556.161 85.376C555.767 85.632 555.452 85.9893 555.217 86.448C554.993 86.896 554.881 87.4133 554.881 88C554.881 88.5867 554.993 89.1093 555.217 89.568C555.452 90.016 555.772 90.368 556.177 90.624C556.593 90.88 557.063 91.008 557.585 91.008C558.108 91.008 558.572 90.8747 558.977 90.608C559.393 90.3413 559.708 89.968 559.921 89.488L561.089 90.016C560.769 90.6987 560.305 91.232 559.697 91.616C559.089 92 558.396 92.192 557.617 92.192ZM566.082 92.192C565.303 92.192 564.61 92.016 564.002 91.664C563.404 91.3013 562.935 90.8053 562.594 90.176C562.252 89.5467 562.082 88.8213 562.082 88C562.082 87.1787 562.247 86.4533 562.578 85.824C562.919 85.1947 563.388 84.704 563.986 84.352C564.594 83.9893 565.282 83.808 566.05 83.808C566.839 83.808 567.532 83.9893 568.13 84.352C568.738 84.704 569.207 85.1947 569.538 85.824C569.879 86.4533 570.05 87.1787 570.05 88C570.05 88.8213 569.879 89.5467 569.538 90.176C569.207 90.8053 568.743 91.3013 568.146 91.664C567.548 92.016 566.86 92.192 566.082 92.192ZM566.082 91.008C566.615 91.008 567.079 90.88 567.474 90.624C567.868 90.368 568.178 90.016 568.402 89.568C568.636 89.12 568.754 88.5973 568.754 88C568.754 87.4027 568.636 86.88 568.402 86.432C568.178 85.984 567.863 85.632 567.458 85.376C567.052 85.12 566.583 84.992 566.05 84.992C565.527 84.992 565.063 85.12 564.658 85.376C564.263 85.632 563.948 85.984 563.714 86.432C563.49 86.88 563.378 87.4027 563.378 88C563.378 88.5867 563.49 89.1093 563.714 89.568C563.948 90.016 564.268 90.368 564.674 90.624C565.09 90.88 565.559 91.008 566.082 91.008ZM574.467 92.192C573.88 92.192 573.368 92.1067 572.931 91.936C572.494 91.7547 572.126 91.52 571.827 91.232C571.539 90.944 571.331 90.6293 571.203 90.288L572.323 89.824C572.504 90.1867 572.776 90.48 573.139 90.704C573.502 90.928 573.902 91.04 574.339 91.04C574.84 91.04 575.262 90.944 575.603 90.752C575.944 90.5493 576.115 90.2667 576.115 89.904C576.115 89.5733 575.987 89.3067 575.731 89.104C575.486 88.9013 575.118 88.736 574.627 88.608L573.859 88.4C573.134 88.208 572.568 87.92 572.163 87.536C571.758 87.1413 571.555 86.6987 571.555 86.208C571.555 85.4507 571.8 84.864 572.291 84.448C572.792 84.0213 573.534 83.808 574.515 83.808C574.984 83.808 575.411 83.8773 575.795 84.016C576.179 84.1547 576.51 84.352 576.787 84.608C577.064 84.8533 577.267 85.1467 577.395 85.488L576.275 85.984C576.136 85.6213 575.907 85.36 575.587 85.2C575.267 85.04 574.878 84.96 574.419 84.96C573.928 84.96 573.544 85.0667 573.267 85.28C572.99 85.4827 572.851 85.7707 572.851 86.144C572.851 86.3573 572.963 86.56 573.187 86.752C573.422 86.9333 573.763 87.0827 574.211 87.2L575.011 87.408C575.534 87.536 575.971 87.728 576.323 87.984C576.675 88.2293 576.942 88.512 577.123 88.832C577.304 89.152 577.395 89.4933 577.395 89.856C577.395 90.336 577.267 90.752 577.011 91.104C576.755 91.456 576.408 91.728 575.971 91.92C575.534 92.1013 575.032 92.192 574.467 92.192Z" fill="#222222"/>
<path d="M1.488 205V193.8H5.136C5.86133 193.8 6.50133 193.949 7.056 194.248C7.62133 194.547 8.05867 194.963 8.368 195.496C8.688 196.029 8.848 196.648 8.848 197.352C8.848 198.035 8.704 198.643 8.416 199.176C8.128 199.709 7.73333 200.131 7.232 200.44C6.73067 200.739 6.14933 200.888 5.488 200.888H2.848V205H1.488ZM2.848 199.656H5.488C6.07467 199.656 6.55467 199.443 6.928 199.016C7.312 198.579 7.504 198.024 7.504 197.352C7.504 196.659 7.28 196.099 6.832 195.672C6.384 195.245 5.81333 195.032 5.12 195.032H2.848V199.656ZM13.5734 205.192C12.7947 205.192 12.1067 205.016 11.5094 204.664C10.912 204.301 10.4427 203.805 10.1014 203.176C9.77071 202.547 9.60538 201.821 9.60538 201C9.60538 200.179 9.77071 199.453 10.1014 198.824C10.4427 198.195 10.9067 197.704 11.4934 197.352C12.0907 196.989 12.7734 196.808 13.5414 196.808C14.288 196.808 14.9334 196.995 15.4774 197.368C16.0214 197.731 16.4427 198.243 16.7414 198.904C17.04 199.565 17.1894 200.344 17.1894 201.24H10.5814L10.9014 200.968C10.9014 201.608 11.0134 202.157 11.2374 202.616C11.472 203.075 11.7974 203.427 12.2134 203.672C12.6294 203.907 13.104 204.024 13.6374 204.024C14.2027 204.024 14.6774 203.891 15.0614 203.624C15.456 203.357 15.76 203.005 15.9734 202.568L17.0774 203.128C16.8747 203.544 16.6027 203.907 16.2614 204.216C15.9307 204.525 15.536 204.765 15.0774 204.936C14.6294 205.107 14.128 205.192 13.5734 205.192ZM10.9814 200.424L10.6454 200.168H16.1654L15.8294 200.44C15.8294 199.928 15.728 199.485 15.5254 199.112C15.3227 198.739 15.0507 198.451 14.7094 198.248C14.368 198.045 13.9734 197.944 13.5254 197.944C13.088 197.944 12.672 198.045 12.2774 198.248C11.8934 198.451 11.5787 198.739 11.3334 199.112C11.0987 199.475 10.9814 199.912 10.9814 200.424ZM24.5638 205L24.4998 203.512V193.8H25.7798V205H24.5638ZM21.7958 205.192C21.0811 205.192 20.4518 205.016 19.9078 204.664C19.3638 204.312 18.9371 203.821 18.6278 203.192C18.3291 202.552 18.1798 201.821 18.1798 201C18.1798 200.168 18.3291 199.437 18.6278 198.808C18.9371 198.179 19.3638 197.688 19.9078 197.336C20.4518 196.984 21.0811 196.808 21.7958 196.808C22.4678 196.808 23.0544 196.984 23.5558 197.336C24.0678 197.688 24.4624 198.179 24.7398 198.808C25.0171 199.437 25.1558 200.168 25.1558 201C25.1558 201.821 25.0171 202.552 24.7398 203.192C24.4624 203.821 24.0678 204.312 23.5558 204.664C23.0544 205.016 22.4678 205.192 21.7958 205.192ZM22.0838 204.024C22.5531 204.024 22.9691 203.896 23.3318 203.64C23.6944 203.384 23.9771 203.027 24.1798 202.568C24.3931 202.109 24.4998 201.587 24.4998 201C24.4998 200.413 24.3931 199.891 24.1798 199.432C23.9771 198.973 23.6944 198.616 23.3318 198.36C22.9691 198.104 22.5478 197.976 22.0678 197.976C21.5664 197.976 21.1184 198.104 20.7238 198.36C20.3398 198.616 20.0358 198.973 19.8118 199.432C19.5878 199.891 19.4758 200.413 19.4758 201C19.4758 201.587 19.5878 202.109 19.8118 202.568C20.0358 203.027 20.3451 203.384 20.7398 203.64C21.1344 203.896 21.5824 204.024 22.0838 204.024ZM27.9388 205V197H29.2188V205H27.9388ZM28.5948 195.144C28.3814 195.144 28.1948 195.064 28.0348 194.904C27.8748 194.744 27.7948 194.557 27.7948 194.344C27.7948 194.12 27.8748 193.933 28.0348 193.784C28.1948 193.624 28.3814 193.544 28.5948 193.544C28.8188 193.544 29.0054 193.624 29.1548 193.784C29.3148 193.933 29.3948 194.12 29.3948 194.344C29.3948 194.557 29.3148 194.744 29.1548 194.904C29.0054 195.064 28.8188 195.144 28.5948 195.144ZM37.3375 205L37.2735 203.512V193.8H38.5535V205H37.3375ZM34.5695 205.192C33.8548 205.192 33.2255 205.016 32.6815 204.664C32.1375 204.312 31.7108 203.821 31.4015 203.192C31.1028 202.552 30.9535 201.821 30.9535 201C30.9535 200.168 31.1028 199.437 31.4015 198.808C31.7108 198.179 32.1375 197.688 32.6815 197.336C33.2255 196.984 33.8548 196.808 34.5695 196.808C35.2415 196.808 35.8282 196.984 36.3295 197.336C36.8415 197.688 37.2362 198.179 37.5135 198.808C37.7908 199.437 37.9295 200.168 37.9295 201C37.9295 201.821 37.7908 202.552 37.5135 203.192C37.2362 203.821 36.8415 204.312 36.3295 204.664C35.8282 205.016 35.2415 205.192 34.5695 205.192ZM34.8575 204.024C35.3268 204.024 35.7428 203.896 36.1055 203.64C36.4682 203.384 36.7508 203.027 36.9535 202.568C37.1668 202.109 37.2735 201.587 37.2735 201C37.2735 200.413 37.1668 199.891 36.9535 199.432C36.7508 198.973 36.4682 198.616 36.1055 198.36C35.7428 198.104 35.3215 197.976 34.8415 197.976C34.3402 197.976 33.8922 198.104 33.4975 198.36C33.1135 198.616 32.8095 198.973 32.5855 199.432C32.3615 199.891 32.2495 200.413 32.2495 201C32.2495 201.587 32.3615 202.109 32.5855 202.568C32.8095 203.027 33.1188 203.384 33.5135 203.64C33.9082 203.896 34.3562 204.024 34.8575 204.024ZM44.1685 205.192C43.3898 205.192 42.6965 205.016 42.0885 204.664C41.4912 204.301 41.0218 203.805 40.6805 203.176C40.3392 202.547 40.1685 201.821 40.1685 201C40.1685 200.179 40.3338 199.453 40.6645 198.824C41.0058 198.195 41.4752 197.704 42.0725 197.352C42.6805 196.989 43.3685 196.808 44.1365 196.808C44.9258 196.808 45.6192 196.989 46.2165 197.352C46.8245 197.704 47.2938 198.195 47.6245 198.824C47.9658 199.453 48.1365 200.179 48.1365 201C48.1365 201.821 47.9658 202.547 47.6245 203.176C47.2938 203.805 46.8298 204.301 46.2325 204.664C45.6352 205.016 44.9472 205.192 44.1685 205.192ZM44.1685 204.008C44.7018 204.008 45.1658 203.88 45.5605 203.624C45.9552 203.368 46.2645 203.016 46.4885 202.568C46.7232 202.12 46.8405 201.597 46.8405 201C46.8405 200.403 46.7232 199.88 46.4885 199.432C46.2645 198.984 45.9498 198.632 45.5445 198.376C45.1392 198.12 44.6698 197.992 44.1365 197.992C43.6138 197.992 43.1498 198.12 42.7445 198.376C42.3498 198.632 42.0352 198.984 41.8005 199.432C41.5765 199.88 41.4645 200.403 41.4645 201C41.4645 201.587 41.5765 202.109 41.8005 202.568C42.0352 203.016 42.3552 203.368 42.7605 203.624C43.1765 203.88 43.6458 204.008 44.1685 204.008ZM52.5538 205.192C51.9671 205.192 51.4551 205.107 51.0178 204.936C50.5804 204.755 50.2124 204.52 49.9138 204.232C49.6258 203.944 49.4178 203.629 49.2898 203.288L50.4098 202.824C50.5911 203.187 50.8631 203.48 51.2258 203.704C51.5884 203.928 51.9884 204.04 52.4258 204.04C52.9271 204.04 53.3484 203.944 53.6898 203.752C54.0311 203.549 54.2018 203.267 54.2018 202.904C54.2018 202.573 54.0738 202.307 53.8178 202.104C53.5724 201.901 53.2044 201.736 52.7138 201.608L51.9458 201.4C51.2204 201.208 50.6551 200.92 50.2498 200.536C49.8444 200.141 49.6418 199.699 49.6418 199.208C49.6418 198.451 49.8871 197.864 50.3778 197.448C50.8791 197.021 51.6204 196.808 52.6018 196.808C53.0711 196.808 53.4978 196.877 53.8818 197.016C54.2658 197.155 54.5964 197.352 54.8738 197.608C55.1511 197.853 55.3538 198.147 55.4818 198.488L54.3618 198.984C54.2231 198.621 53.9938 198.36 53.6738 198.2C53.3538 198.04 52.9644 197.96 52.5058 197.96C52.0151 197.96 51.6311 198.067 51.3538 198.28C51.0764 198.483 50.9378 198.771 50.9378 199.144C50.9378 199.357 51.0498 199.56 51.2738 199.752C51.5084 199.933 51.8498 200.083 52.2978 200.2L53.0978 200.408C53.6204 200.536 54.0578 200.728 54.4098 200.984C54.7618 201.229 55.0284 201.512 55.2098 201.832C55.3911 202.152 55.4818 202.493 55.4818 202.856C55.4818 203.336 55.3538 203.752 55.0978 204.104C54.8418 204.456 54.4951 204.728 54.0578 204.92C53.6204 205.101 53.1191 205.192 52.5538 205.192ZM66.76 205L66.696 203.512V193.8H67.976V205H66.76ZM63.992 205.192C63.2773 205.192 62.648 205.016 62.104 204.664C61.56 204.312 61.1333 203.821 60.824 203.192C60.5253 202.552 60.376 201.821 60.376 201C60.376 200.168 60.5253 199.437 60.824 198.808C61.1333 198.179 61.56 197.688 62.104 197.336C62.648 196.984 63.2773 196.808 63.992 196.808C64.664 196.808 65.2507 196.984 65.752 197.336C66.264 197.688 66.6587 198.179 66.936 198.808C67.2133 199.437 67.352 200.168 67.352 201C67.352 201.821 67.2133 202.552 66.936 203.192C66.6587 203.821 66.264 204.312 65.752 204.664C65.2507 205.016 64.664 205.192 63.992 205.192ZM64.28 204.024C64.7493 204.024 65.1653 203.896 65.528 203.64C65.8907 203.384 66.1733 203.027 66.376 202.568C66.5893 202.109 66.696 201.587 66.696 201C66.696 200.413 66.5893 199.891 66.376 199.432C66.1733 198.973 65.8907 198.616 65.528 198.36C65.1653 198.104 64.744 197.976 64.264 197.976C63.7627 197.976 63.3147 198.104 62.92 198.36C62.536 198.616 62.232 198.973 62.008 199.432C61.784 199.891 61.672 200.413 61.672 201C61.672 201.587 61.784 202.109 62.008 202.568C62.232 203.027 62.5413 203.384 62.936 203.64C63.3307 203.896 63.7787 204.024 64.28 204.024ZM73.559 205.192C72.7803 205.192 72.0923 205.016 71.495 204.664C70.8977 204.301 70.4283 203.805 70.087 203.176C69.7563 202.547 69.591 201.821 69.591 201C69.591 200.179 69.7563 199.453 70.087 198.824C70.4283 198.195 70.8923 197.704 71.479 197.352C72.0763 196.989 72.759 196.808 73.527 196.808C74.2737 196.808 74.919 196.995 75.463 197.368C76.007 197.731 76.4283 198.243 76.727 198.904C77.0257 199.565 77.175 200.344 77.175 201.24H70.567L70.887 200.968C70.887 201.608 70.999 202.157 71.223 202.616C71.4577 203.075 71.783 203.427 72.199 203.672C72.615 203.907 73.0897 204.024 73.623 204.024C74.1883 204.024 74.663 203.891 75.047 203.624C75.4417 203.357 75.7457 203.005 75.959 202.568L77.063 203.128C76.8603 203.544 76.5883 203.907 76.247 204.216C75.9163 204.525 75.5217 204.765 75.063 204.936C74.615 205.107 74.1137 205.192 73.559 205.192ZM70.967 200.424L70.631 200.168H76.151L75.815 200.44C75.815 199.928 75.7137 199.485 75.511 199.112C75.3083 198.739 75.0363 198.451 74.695 198.248C74.3537 198.045 73.959 197.944 73.511 197.944C73.0737 197.944 72.6577 198.045 72.263 198.248C71.879 198.451 71.5643 198.739 71.319 199.112C71.0843 199.475 70.967 199.912 70.967 200.424ZM82.7905 205V193.8H86.4385C87.1638 193.8 87.8038 193.949 88.3585 194.248C88.9238 194.547 89.3612 194.963 89.6705 195.496C89.9905 196.029 90.1505 196.648 90.1505 197.352C90.1505 198.035 90.0065 198.643 89.7185 199.176C89.4305 199.709 89.0358 200.131 88.5345 200.44C88.0332 200.739 87.4518 200.888 86.7905 200.888H84.1505V205H82.7905ZM84.1505 199.656H86.7905C87.3772 199.656 87.8572 199.443 88.2305 199.016C88.6145 198.579 88.8065 198.024 88.8065 197.352C88.8065 196.659 88.5825 196.099 88.1345 195.672C87.6865 195.245 87.1158 195.032 86.4225 195.032H84.1505V199.656ZM96.2999 205L96.2359 203.688V200.776C96.2359 200.147 96.1665 199.629 96.0279 199.224C95.8892 198.808 95.6705 198.493 95.3719 198.28C95.0732 198.067 94.6839 197.96 94.2039 197.96C93.7665 197.96 93.3879 198.051 93.0679 198.232C92.7585 198.403 92.5025 198.68 92.2999 199.064L91.1479 198.616C91.3505 198.243 91.5959 197.923 91.8839 197.656C92.1719 197.379 92.5079 197.171 92.8919 197.032C93.2759 196.883 93.7132 196.808 94.2039 196.808C94.9505 196.808 95.5639 196.957 96.0439 197.256C96.5345 197.544 96.9025 197.976 97.1479 198.552C97.3932 199.117 97.5105 199.821 97.4999 200.664L97.4839 205H96.2999ZM93.8999 205.192C92.9612 205.192 92.2252 204.979 91.6919 204.552C91.1692 204.115 90.9079 203.512 90.9079 202.744C90.9079 201.933 91.1745 201.315 91.7079 200.888C92.2519 200.451 93.0092 200.232 93.9799 200.232H96.2679V201.304H94.2679C93.5212 201.304 92.9879 201.427 92.6679 201.672C92.3585 201.917 92.2039 202.269 92.2039 202.728C92.2039 203.144 92.3585 203.475 92.6679 203.72C92.9772 203.955 93.4092 204.072 93.9639 204.072C94.4225 204.072 94.8225 203.976 95.1639 203.784C95.5052 203.581 95.7665 203.299 95.9479 202.936C96.1399 202.563 96.2359 202.125 96.2359 201.624H96.7799C96.7799 202.712 96.5345 203.581 96.0439 204.232C95.5532 204.872 94.8385 205.192 93.8999 205.192ZM102.376 205.192C101.597 205.192 100.995 204.989 100.568 204.584C100.141 204.179 99.9281 203.608 99.9281 202.872V194.504H101.208V202.744C101.208 203.149 101.315 203.464 101.528 203.688C101.752 203.901 102.061 204.008 102.456 204.008C102.584 204.008 102.707 203.992 102.824 203.96C102.952 203.917 103.117 203.821 103.32 203.672L103.816 204.712C103.539 204.893 103.288 205.016 103.064 205.08C102.84 205.155 102.611 205.192 102.376 205.192ZM98.5361 198.136V197H103.608V198.136H98.5361ZM108.712 205.192C107.933 205.192 107.245 205.016 106.648 204.664C106.051 204.301 105.581 203.805 105.24 203.176C104.909 202.547 104.744 201.821 104.744 201C104.744 200.179 104.909 199.453 105.24 198.824C105.581 198.195 106.045 197.704 106.632 197.352C107.229 196.989 107.912 196.808 108.68 196.808C109.427 196.808 110.072 196.995 110.616 197.368C111.16 197.731 111.581 198.243 111.88 198.904C112.179 199.565 112.328 200.344 112.328 201.24H105.72L106.04 200.968C106.04 201.608 106.152 202.157 106.376 202.616C106.611 203.075 106.936 203.427 107.352 203.672C107.768 203.907 108.243 204.024 108.776 204.024C109.341 204.024 109.816 203.891 110.2 203.624C110.595 203.357 110.899 203.005 111.112 202.568L112.216 203.128C112.013 203.544 111.741 203.907 111.4 204.216C111.069 204.525 110.675 204.765 110.216 204.936C109.768 205.107 109.267 205.192 108.712 205.192ZM106.12 200.424L105.784 200.168H111.304L110.968 200.44C110.968 199.928 110.867 199.485 110.664 199.112C110.461 198.739 110.189 198.451 109.848 198.248C109.507 198.045 109.112 197.944 108.664 197.944C108.227 197.944 107.811 198.045 107.416 198.248C107.032 198.451 106.717 198.739 106.472 199.112C106.237 199.475 106.12 199.912 106.12 200.424ZM113.782 205V197H114.982L115.062 198.472V205H113.782ZM119.398 205V200.904H120.678V205H119.398ZM119.398 200.904C119.398 200.115 119.308 199.512 119.126 199.096C118.945 198.68 118.694 198.397 118.374 198.248C118.054 198.088 117.692 198.008 117.286 198.008C116.582 198.008 116.033 198.259 115.638 198.76C115.254 199.251 115.062 199.949 115.062 200.856H114.438C114.438 200.013 114.561 199.288 114.806 198.68C115.052 198.072 115.409 197.608 115.878 197.288C116.348 196.968 116.913 196.808 117.574 196.808C118.204 196.808 118.748 196.936 119.206 197.192C119.676 197.437 120.038 197.832 120.294 198.376C120.561 198.92 120.689 199.635 120.678 200.52V200.904H119.398ZM125.552 205.192C124.774 205.192 124.171 204.989 123.744 204.584C123.318 204.179 123.104 203.608 123.104 202.872V194.504H124.384V202.744C124.384 203.149 124.491 203.464 124.704 203.688C124.928 203.901 125.238 204.008 125.632 204.008C125.76 204.008 125.883 203.992 126 203.96C126.128 203.917 126.294 203.821 126.496 203.672L126.992 204.712C126.715 204.893 126.464 205.016 126.24 205.08C126.016 205.155 125.787 205.192 125.552 205.192ZM121.712 198.136V197H126.784V198.136H121.712ZM131.888 205.192C131.11 205.192 130.422 205.016 129.824 204.664C129.227 204.301 128.758 203.805 128.416 203.176C128.086 202.547 127.92 201.821 127.92 201C127.92 200.179 128.086 199.453 128.416 198.824C128.758 198.195 129.222 197.704 129.808 197.352C130.406 196.989 131.088 196.808 131.856 196.808C132.603 196.808 133.248 196.995 133.792 197.368C134.336 197.731 134.758 198.243 135.056 198.904C135.355 199.565 135.504 200.344 135.504 201.24H128.896L129.216 200.968C129.216 201.608 129.328 202.157 129.552 202.616C129.787 203.075 130.112 203.427 130.528 203.672C130.944 203.907 131.419 204.024 131.952 204.024C132.518 204.024 132.992 203.891 133.376 203.624C133.771 203.357 134.075 203.005 134.288 202.568L135.392 203.128C135.19 203.544 134.918 203.907 134.576 204.216C134.246 204.525 133.851 204.765 133.392 204.936C132.944 205.107 132.443 205.192 131.888 205.192ZM129.296 200.424L128.96 200.168H134.48L134.144 200.44C134.144 199.928 134.043 199.485 133.84 199.112C133.638 198.739 133.366 198.451 133.024 198.248C132.683 198.045 132.288 197.944 131.84 197.944C131.403 197.944 130.987 198.045 130.592 198.248C130.208 198.451 129.894 198.739 129.648 199.112C129.414 199.475 129.296 199.912 129.296 200.424ZM139.759 205.192C139.172 205.192 138.66 205.107 138.223 204.936C137.785 204.755 137.417 204.52 137.119 204.232C136.831 203.944 136.623 203.629 136.495 203.288L137.615 202.824C137.796 203.187 138.068 203.48 138.431 203.704C138.793 203.928 139.193 204.04 139.631 204.04C140.132 204.04 140.553 203.944 140.895 203.752C141.236 203.549 141.407 203.267 141.407 202.904C141.407 202.573 141.279 202.307 141.023 202.104C140.777 201.901 140.409 201.736 139.919 201.608L139.151 201.4C138.425 201.208 137.86 200.92 137.455 200.536C137.049 200.141 136.847 199.699 136.847 199.208C136.847 198.451 137.092 197.864 137.583 197.448C138.084 197.021 138.825 196.808 139.807 196.808C140.276 196.808 140.703 196.877 141.087 197.016C141.471 197.155 141.801 197.352 142.079 197.608C142.356 197.853 142.559 198.147 142.687 198.488L141.567 198.984C141.428 198.621 141.199 198.36 140.879 198.2C140.559 198.04 140.169 197.96 139.711 197.96C139.22 197.96 138.836 198.067 138.559 198.28C138.281 198.483 138.143 198.771 138.143 199.144C138.143 199.357 138.255 199.56 138.479 199.752C138.713 199.933 139.055 200.083 139.503 200.2L140.303 200.408C140.825 200.536 141.263 200.728 141.615 200.984C141.967 201.229 142.233 201.512 142.415 201.832C142.596 202.152 142.687 202.493 142.687 202.856C142.687 203.336 142.559 203.752 142.303 204.104C142.047 204.456 141.7 204.728 141.263 204.92C140.825 205.101 140.324 205.192 139.759 205.192Z" fill="#222222"/>
<path d="M55.248 297L50.752 285.8H52.112L56.672 297H55.248ZM46.144 297L50.704 285.8H52.08L47.584 297H46.144ZM48.304 293.816V292.6H54.528V293.816H48.304ZM57.7881 297V289H58.9881L59.0681 290.472V297H57.7881ZM63.4041 297V292.904H64.6841V297H63.4041ZM63.4041 292.904C63.4041 292.115 63.3135 291.512 63.1321 291.096C62.9508 290.68 62.7001 290.397 62.3801 290.248C62.0601 290.088 61.6975 290.008 61.2921 290.008C60.5881 290.008 60.0388 290.259 59.6441 290.76C59.2601 291.251 59.0681 291.949 59.0681 292.856H58.4441C58.4441 292.013 58.5668 291.288 58.8121 290.68C59.0575 290.072 59.4148 289.608 59.8841 289.288C60.3535 288.968 60.9188 288.808 61.5801 288.808C62.2095 288.808 62.7535 288.936 63.2121 289.192C63.6815 289.437 64.0441 289.832 64.3001 290.376C64.5668 290.92 64.6948 291.635 64.6841 292.52V292.904H63.4041ZM70.086 297.192C69.3073 297.192 68.614 297.016 68.006 296.664C67.4087 296.301 66.9393 295.805 66.598 295.176C66.2567 294.547 66.086 293.821 66.086 293C66.086 292.179 66.2513 291.453 66.582 290.824C66.9233 290.195 67.3927 289.704 67.99 289.352C68.598 288.989 69.286 288.808 70.054 288.808C70.8433 288.808 71.5367 288.989 72.134 289.352C72.742 289.704 73.2113 290.195 73.542 290.824C73.8833 291.453 74.054 292.179 74.054 293C74.054 293.821 73.8833 294.547 73.542 295.176C73.2113 295.805 72.7473 296.301 72.15 296.664C71.5527 297.016 70.8647 297.192 70.086 297.192ZM70.086 296.008C70.6193 296.008 71.0833 295.88 71.478 295.624C71.8727 295.368 72.182 295.016 72.406 294.568C72.6407 294.12 72.758 293.597 72.758 293C72.758 292.403 72.6407 291.88 72.406 291.432C72.182 290.984 71.8673 290.632 71.462 290.376C71.0567 290.12 70.5873 289.992 70.054 289.992C69.5313 289.992 69.0673 290.12 68.662 290.376C68.2673 290.632 67.9527 290.984 67.718 291.432C67.494 291.88 67.382 292.403 67.382 293C67.382 293.587 67.494 294.109 67.718 294.568C67.9527 295.016 68.2727 295.368 68.678 295.624C69.094 295.88 69.5633 296.008 70.086 296.008ZM78.4713 297.192C77.8846 297.192 77.3726 297.107 76.9353 296.936C76.4979 296.755 76.1299 296.52 75.8313 296.232C75.5433 295.944 75.3353 295.629 75.2073 295.288L76.3273 294.824C76.5086 295.187 76.7806 295.48 77.1433 295.704C77.5059 295.928 77.9059 296.04 78.3433 296.04C78.8446 296.04 79.2659 295.944 79.6073 295.752C79.9486 295.549 80.1193 295.267 80.1193 294.904C80.1193 294.573 79.9913 294.307 79.7353 294.104C79.4899 293.901 79.1219 293.736 78.6313 293.608L77.8633 293.4C77.1379 293.208 76.5726 292.92 76.1673 292.536C75.7619 292.141 75.5593 291.699 75.5593 291.208C75.5593 290.451 75.8046 289.864 76.2953 289.448C76.7966 289.021 77.5379 288.808 78.5193 288.808C78.9886 288.808 79.4153 288.877 79.7993 289.016C80.1833 289.155 80.5139 289.352 80.7913 289.608C81.0686 289.853 81.2713 290.147 81.3993 290.488L80.2793 290.984C80.1406 290.621 79.9113 290.36 79.5913 290.2C79.2713 290.04 78.8819 289.96 78.4233 289.96C77.9326 289.96 77.5486 290.067 77.2713 290.28C76.9939 290.483 76.8553 290.771 76.8553 291.144C76.8553 291.357 76.9673 291.56 77.1913 291.752C77.4259 291.933 77.7673 292.083 78.2153 292.2L79.0153 292.408C79.5379 292.536 79.9753 292.728 80.3273 292.984C80.6793 293.229 80.9459 293.512 81.1273 293.832C81.3086 294.152 81.3993 294.493 81.3993 294.856C81.3993 295.336 81.2713 295.752 81.0153 296.104C80.7593 296.456 80.4126 296.728 79.9753 296.92C79.5379 297.101 79.0366 297.192 78.4713 297.192ZM92.6775 297L92.6135 295.512V285.8H93.8935V297H92.6775ZM89.9095 297.192C89.1948 297.192 88.5655 297.016 88.0215 296.664C87.4775 296.312 87.0508 295.821 86.7415 295.192C86.4428 294.552 86.2935 293.821 86.2935 293C86.2935 292.168 86.4428 291.437 86.7415 290.808C87.0508 290.179 87.4775 289.688 88.0215 289.336C88.5655 288.984 89.1948 288.808 89.9095 288.808C90.5815 288.808 91.1682 288.984 91.6695 289.336C92.1815 289.688 92.5762 290.179 92.8535 290.808C93.1308 291.437 93.2695 292.168 93.2695 293C93.2695 293.821 93.1308 294.552 92.8535 295.192C92.5762 295.821 92.1815 296.312 91.6695 296.664C91.1682 297.016 90.5815 297.192 89.9095 297.192ZM90.1975 296.024C90.6668 296.024 91.0828 295.896 91.4455 295.64C91.8082 295.384 92.0908 295.027 92.2935 294.568C92.5068 294.109 92.6135 293.587 92.6135 293C92.6135 292.413 92.5068 291.891 92.2935 291.432C92.0908 290.973 91.8082 290.616 91.4455 290.36C91.0828 290.104 90.6615 289.976 90.1815 289.976C89.6802 289.976 89.2322 290.104 88.8375 290.36C88.4535 290.616 88.1495 290.973 87.9255 291.432C87.7015 291.891 87.5895 292.413 87.5895 293C87.5895 293.587 87.7015 294.109 87.9255 294.568C88.1495 295.027 88.4588 295.384 88.8535 295.64C89.2482 295.896 89.6962 296.024 90.1975 296.024ZM99.4765 297.192C98.6978 297.192 98.0098 297.016 97.4125 296.664C96.8152 296.301 96.3458 295.805 96.0045 295.176C95.6738 294.547 95.5085 293.821 95.5085 293C95.5085 292.179 95.6738 291.453 96.0045 290.824C96.3458 290.195 96.8098 289.704 97.3965 289.352C97.9938 288.989 98.6765 288.808 99.4445 288.808C100.191 288.808 100.837 288.995 101.381 289.368C101.925 289.731 102.346 290.243 102.645 290.904C102.943 291.565 103.093 292.344 103.093 293.24H96.4845L96.8045 292.968C96.8045 293.608 96.9165 294.157 97.1405 294.616C97.3752 295.075 97.7005 295.427 98.1165 295.672C98.5325 295.907 99.0072 296.024 99.5405 296.024C100.106 296.024 100.581 295.891 100.965 295.624C101.359 295.357 101.663 295.005 101.877 294.568L102.981 295.128C102.778 295.544 102.506 295.907 102.165 296.216C101.834 296.525 101.439 296.765 100.981 296.936C100.533 297.107 100.031 297.192 99.4765 297.192ZM96.8845 292.424L96.5485 292.168H102.069L101.733 292.44C101.733 291.928 101.631 291.485 101.429 291.112C101.226 290.739 100.954 290.451 100.613 290.248C100.271 290.045 99.8765 289.944 99.4285 289.944C98.9912 289.944 98.5752 290.045 98.1805 290.248C97.7965 290.451 97.4818 290.739 97.2365 291.112C97.0018 291.475 96.8845 291.912 96.8845 292.424ZM111.844 297.192C111.065 297.192 110.377 297.016 109.78 296.664C109.183 296.301 108.713 295.805 108.372 295.176C108.041 294.547 107.876 293.821 107.876 293C107.876 292.179 108.041 291.453 108.372 290.824C108.713 290.195 109.177 289.704 109.764 289.352C110.361 288.989 111.044 288.808 111.812 288.808C112.559 288.808 113.204 288.995 113.748 289.368C114.292 289.731 114.713 290.243 115.012 290.904C115.311 291.565 115.46 292.344 115.46 293.24H108.852L109.172 292.968C109.172 293.608 109.284 294.157 109.508 294.616C109.743 295.075 110.068 295.427 110.484 295.672C110.9 295.907 111.375 296.024 111.908 296.024C112.473 296.024 112.948 295.891 113.332 295.624C113.727 295.357 114.031 295.005 114.244 294.568L115.348 295.128C115.145 295.544 114.873 295.907 114.532 296.216C114.201 296.525 113.807 296.765 113.348 296.936C112.9 297.107 112.399 297.192 111.844 297.192ZM109.252 292.424L108.916 292.168H114.436L114.1 292.44C114.1 291.928 113.999 291.485 113.796 291.112C113.593 290.739 113.321 290.451 112.98 290.248C112.639 290.045 112.244 289.944 111.796 289.944C111.359 289.944 110.943 290.045 110.548 290.248C110.164 290.451 109.849 290.739 109.604 291.112C109.369 291.475 109.252 291.912 109.252 292.424ZM115.876 297L119.14 292.408L121.444 289H122.964L119.924 293.32L117.428 297H115.876ZM121.62 297L119.156 293.32L116.084 289H117.604L119.924 292.408L123.156 297H121.62ZM124.35 300.2V289H125.55L125.63 290.472V300.2H124.35ZM128.334 297.192C127.662 297.192 127.07 297.016 126.558 296.664C126.057 296.312 125.667 295.821 125.39 295.192C125.113 294.552 124.974 293.821 124.974 293C124.974 292.168 125.113 291.437 125.39 290.808C125.667 290.179 126.057 289.688 126.558 289.336C127.07 288.984 127.662 288.808 128.334 288.808C129.049 288.808 129.678 288.984 130.222 289.336C130.766 289.688 131.187 290.179 131.486 290.808C131.795 291.437 131.95 292.168 131.95 293C131.95 293.821 131.795 294.552 131.486 295.192C131.187 295.821 130.766 296.312 130.222 296.664C129.678 297.016 129.049 297.192 128.334 297.192ZM128.046 296.024C128.547 296.024 128.99 295.896 129.374 295.64C129.769 295.384 130.078 295.027 130.302 294.568C130.537 294.109 130.654 293.587 130.654 293C130.654 292.413 130.542 291.891 130.318 291.432C130.105 290.973 129.801 290.616 129.406 290.36C129.011 290.104 128.563 289.976 128.062 289.976C127.593 289.976 127.171 290.104 126.798 290.36C126.435 290.616 126.147 290.973 125.934 291.432C125.731 291.891 125.63 292.413 125.63 293C125.63 293.587 125.731 294.109 125.934 294.568C126.147 295.027 126.435 295.384 126.798 295.64C127.161 295.896 127.577 296.024 128.046 296.024ZM137.067 297.192C136.288 297.192 135.6 297.016 135.003 296.664C134.406 296.301 133.936 295.805 133.595 295.176C133.264 294.547 133.099 293.821 133.099 293C133.099 292.179 133.264 291.453 133.595 290.824C133.936 290.195 134.4 289.704 134.987 289.352C135.584 288.989 136.267 288.808 137.035 288.808C137.782 288.808 138.427 288.995 138.971 289.368C139.515 289.731 139.936 290.243 140.235 290.904C140.534 291.565 140.683 292.344 140.683 293.24H134.075L134.395 292.968C134.395 293.608 134.507 294.157 134.731 294.616C134.966 295.075 135.291 295.427 135.707 295.672C136.123 295.907 136.598 296.024 137.131 296.024C137.696 296.024 138.171 295.891 138.555 295.624C138.95 295.357 139.254 295.005 139.467 294.568L140.571 295.128C140.368 295.544 140.096 295.907 139.755 296.216C139.424 296.525 139.03 296.765 138.571 296.936C138.123 297.107 137.622 297.192 137.067 297.192ZM134.475 292.424L134.139 292.168H139.659L139.323 292.44C139.323 291.928 139.222 291.485 139.019 291.112C138.816 290.739 138.544 290.451 138.203 290.248C137.862 290.045 137.467 289.944 137.019 289.944C136.582 289.944 136.166 290.045 135.771 290.248C135.387 290.451 135.072 290.739 134.827 291.112C134.592 291.475 134.475 291.912 134.475 292.424ZM142.842 292.664C142.842 291.8 143.007 291.101 143.338 290.568C143.668 290.024 144.09 289.624 144.602 289.368C145.124 289.101 145.674 288.968 146.25 288.968V290.168C145.78 290.168 145.327 290.248 144.89 290.408C144.463 290.557 144.111 290.808 143.834 291.16C143.556 291.512 143.418 291.992 143.418 292.6L142.842 292.664ZM142.138 297V289H143.418V297H142.138ZM147.464 297V289H148.744V297H147.464ZM148.12 287.144C147.906 287.144 147.72 287.064 147.56 286.904C147.4 286.744 147.32 286.557 147.32 286.344C147.32 286.12 147.4 285.933 147.56 285.784C147.72 285.624 147.906 285.544 148.12 285.544C148.344 285.544 148.53 285.624 148.68 285.784C148.84 285.933 148.92 286.12 148.92 286.344C148.92 286.557 148.84 286.744 148.68 286.904C148.53 287.064 148.344 287.144 148.12 287.144ZM154.447 297.192C153.668 297.192 152.98 297.016 152.383 296.664C151.785 296.301 151.316 295.805 150.975 295.176C150.644 294.547 150.479 293.821 150.479 293C150.479 292.179 150.644 291.453 150.975 290.824C151.316 290.195 151.78 289.704 152.367 289.352C152.964 288.989 153.647 288.808 154.415 288.808C155.161 288.808 155.807 288.995 156.351 289.368C156.895 289.731 157.316 290.243 157.615 290.904C157.913 291.565 158.063 292.344 158.063 293.24H151.455L151.775 292.968C151.775 293.608 151.887 294.157 152.111 294.616C152.345 295.075 152.671 295.427 153.087 295.672C153.503 295.907 153.977 296.024 154.511 296.024C155.076 296.024 155.551 295.891 155.935 295.624C156.329 295.357 156.633 295.005 156.847 294.568L157.951 295.128C157.748 295.544 157.476 295.907 157.135 296.216C156.804 296.525 156.409 296.765 155.951 296.936C155.503 297.107 155.001 297.192 154.447 297.192ZM151.855 292.424L151.519 292.168H157.039L156.703 292.44C156.703 291.928 156.601 291.485 156.399 291.112C156.196 290.739 155.924 290.451 155.583 290.248C155.241 290.045 154.847 289.944 154.399 289.944C153.961 289.944 153.545 290.045 153.151 290.248C152.767 290.451 152.452 290.739 152.207 291.112C151.972 291.475 151.855 291.912 151.855 292.424ZM155.727 287.688L153.631 285.656V285.608H155.199L157.135 287.688H155.727ZM151.679 287.688L153.615 285.608H155.183V285.656L153.087 287.688H151.679ZM159.532 297V289H160.732L160.812 290.472V297H159.532ZM165.148 297V292.904H166.428V297H165.148ZM165.148 292.904C165.148 292.115 165.058 291.512 164.876 291.096C164.695 290.68 164.444 290.397 164.124 290.248C163.804 290.088 163.442 290.008 163.036 290.008C162.332 290.008 161.783 290.259 161.388 290.76C161.004 291.251 160.812 291.949 160.812 292.856H160.188C160.188 292.013 160.311 291.288 160.556 290.68C160.802 290.072 161.159 289.608 161.628 289.288C162.098 288.968 162.663 288.808 163.324 288.808C163.954 288.808 164.498 288.936 164.956 289.192C165.426 289.437 165.788 289.832 166.044 290.376C166.311 290.92 166.439 291.635 166.428 292.52V292.904H165.148ZM171.862 297.192C171.073 297.192 170.374 297.016 169.766 296.664C169.158 296.301 168.684 295.805 168.342 295.176C168.001 294.547 167.83 293.821 167.83 293C167.83 292.179 167.996 291.453 168.326 290.824C168.668 290.195 169.142 289.704 169.75 289.352C170.358 288.989 171.052 288.808 171.83 288.808C172.598 288.808 173.286 288.984 173.894 289.336C174.502 289.688 174.966 290.184 175.286 290.824L174.118 291.352C173.905 290.925 173.596 290.595 173.19 290.36C172.785 290.115 172.321 289.992 171.798 289.992C171.276 289.992 170.812 290.12 170.406 290.376C170.012 290.632 169.697 290.989 169.462 291.448C169.238 291.896 169.126 292.413 169.126 293C169.126 293.587 169.238 294.109 169.462 294.568C169.697 295.016 170.017 295.368 170.422 295.624C170.838 295.88 171.308 296.008 171.83 296.008C172.353 296.008 172.817 295.875 173.222 295.608C173.638 295.341 173.953 294.968 174.166 294.488L175.334 295.016C175.014 295.699 174.55 296.232 173.942 296.616C173.334 297 172.641 297.192 171.862 297.192ZM176.871 297V289H178.151V297H176.871ZM177.527 287.144C177.313 287.144 177.127 287.064 176.967 286.904C176.807 286.744 176.727 286.557 176.727 286.344C176.727 286.12 176.807 285.933 176.967 285.784C177.127 285.624 177.313 285.544 177.527 285.544C177.751 285.544 177.937 285.624 178.087 285.784C178.247 285.933 178.327 286.12 178.327 286.344C178.327 286.557 178.247 286.744 178.087 286.904C177.937 287.064 177.751 287.144 177.527 287.144ZM185.277 297L185.213 295.688V292.776C185.213 292.147 185.144 291.629 185.005 291.224C184.867 290.808 184.648 290.493 184.349 290.28C184.051 290.067 183.661 289.96 183.181 289.96C182.744 289.96 182.365 290.051 182.045 290.232C181.736 290.403 181.48 290.68 181.277 291.064L180.125 290.616C180.328 290.243 180.573 289.923 180.861 289.656C181.149 289.379 181.485 289.171 181.869 289.032C182.253 288.883 182.691 288.808 183.181 288.808C183.928 288.808 184.541 288.957 185.021 289.256C185.512 289.544 185.88 289.976 186.125 290.552C186.371 291.117 186.488 291.821 186.477 292.664L186.461 297H185.277ZM182.877 297.192C181.939 297.192 181.203 296.979 180.669 296.552C180.147 296.115 179.885 295.512 179.885 294.744C179.885 293.933 180.152 293.315 180.685 292.888C181.229 292.451 181.987 292.232 182.957 292.232H185.245V293.304H183.245C182.499 293.304 181.965 293.427 181.645 293.672C181.336 293.917 181.181 294.269 181.181 294.728C181.181 295.144 181.336 295.475 181.645 295.72C181.955 295.955 182.387 296.072 182.941 296.072C183.4 296.072 183.8 295.976 184.141 295.784C184.483 295.581 184.744 295.299 184.925 294.936C185.117 294.563 185.213 294.125 185.213 293.624H185.757C185.757 294.712 185.512 295.581 185.021 296.232C184.531 296.872 183.816 297.192 182.877 297.192ZM47.488 321V309.8H48.848V319.768H54.128V321H47.488ZM60.2005 321L60.1365 319.688V316.776C60.1365 316.147 60.0672 315.629 59.9285 315.224C59.7898 314.808 59.5712 314.493 59.2725 314.28C58.9738 314.067 58.5845 313.96 58.1045 313.96C57.6672 313.96 57.2885 314.051 56.9685 314.232C56.6592 314.403 56.4032 314.68 56.2005 315.064L55.0485 314.616C55.2512 314.243 55.4965 313.923 55.7845 313.656C56.0725 313.379 56.4085 313.171 56.7925 313.032C57.1765 312.883 57.6138 312.808 58.1045 312.808C58.8512 312.808 59.4645 312.957 59.9445 313.256C60.4352 313.544 60.8032 313.976 61.0485 314.552C61.2938 315.117 61.4112 315.821 61.4005 316.664L61.3845 321H60.2005ZM57.8005 321.192C56.8618 321.192 56.1258 320.979 55.5925 320.552C55.0698 320.115 54.8085 319.512 54.8085 318.744C54.8085 317.933 55.0752 317.315 55.6085 316.888C56.1525 316.451 56.9098 316.232 57.8805 316.232H60.1685V317.304H58.1685C57.4218 317.304 56.8885 317.427 56.5685 317.672C56.2592 317.917 56.1045 318.269 56.1045 318.728C56.1045 319.144 56.2592 319.475 56.5685 319.72C56.8778 319.955 57.3098 320.072 57.8645 320.072C58.3232 320.072 58.7232 319.976 59.0645 319.784C59.4058 319.581 59.6672 319.299 59.8485 318.936C60.0405 318.563 60.1365 318.125 60.1365 317.624H60.6805C60.6805 318.712 60.4352 319.581 59.9445 320.232C59.4538 320.872 58.7392 321.192 57.8005 321.192ZM63.2688 321V309.8H64.5488V319.512L64.4848 321H63.2688ZM67.2528 321.192C66.5808 321.192 65.9888 321.016 65.4768 320.664C64.9754 320.312 64.5861 319.821 64.3088 319.192C64.0314 318.552 63.8928 317.821 63.8928 317C63.8928 316.168 64.0314 315.437 64.3088 314.808C64.5861 314.179 64.9754 313.688 65.4768 313.336C65.9888 312.984 66.5808 312.808 67.2528 312.808C67.9674 312.808 68.5968 312.984 69.1408 313.336C69.6848 313.688 70.1061 314.179 70.4048 314.808C70.7141 315.437 70.8688 316.168 70.8688 317C70.8688 317.821 70.7141 318.552 70.4048 319.192C70.1061 319.821 69.6848 320.312 69.1408 320.664C68.5968 321.016 67.9674 321.192 67.2528 321.192ZM66.9648 320.024C67.4661 320.024 67.9088 319.896 68.2928 319.64C68.6874 319.384 68.9968 319.027 69.2208 318.568C69.4554 318.109 69.5728 317.587 69.5728 317C69.5728 316.413 69.4608 315.891 69.2368 315.432C69.0234 314.973 68.7194 314.616 68.3248 314.36C67.9301 314.104 67.4821 313.976 66.9808 313.976C66.5114 313.976 66.0901 314.104 65.7168 314.36C65.3541 314.616 65.0661 314.973 64.8528 315.432C64.6501 315.891 64.5488 316.413 64.5488 317C64.5488 317.587 64.6501 318.109 64.8528 318.568C65.0661 319.027 65.3541 319.384 65.7168 319.64C66.0794 319.896 66.4954 320.024 66.9648 320.024ZM76.0198 321.192C75.2411 321.192 74.5478 321.016 73.9398 320.664C73.3424 320.301 72.8731 319.805 72.5318 319.176C72.1904 318.547 72.0198 317.821 72.0198 317C72.0198 316.179 72.1851 315.453 72.5158 314.824C72.8571 314.195 73.3264 313.704 73.9238 313.352C74.5318 312.989 75.2198 312.808 75.9878 312.808C76.7771 312.808 77.4704 312.989 78.0678 313.352C78.6758 313.704 79.1451 314.195 79.4758 314.824C79.8171 315.453 79.9878 316.179 79.9878 317C79.9878 317.821 79.8171 318.547 79.4758 319.176C79.1451 319.805 78.6811 320.301 78.0838 320.664C77.4864 321.016 76.7984 321.192 76.0198 321.192ZM76.0198 320.008C76.5531 320.008 77.0171 319.88 77.4118 319.624C77.8064 319.368 78.1158 319.016 78.3398 318.568C78.5744 318.12 78.6918 317.597 78.6918 317C78.6918 316.403 78.5744 315.88 78.3398 315.432C78.1158 314.984 77.8011 314.632 77.3958 314.376C76.9904 314.12 76.5211 313.992 75.9878 313.992C75.4651 313.992 75.0011 314.12 74.5958 314.376C74.2011 314.632 73.8864 314.984 73.6518 315.432C73.4278 315.88 73.3158 316.403 73.3158 317C73.3158 317.587 73.4278 318.109 73.6518 318.568C73.8864 319.016 74.2064 319.368 74.6118 319.624C75.0278 319.88 75.4971 320.008 76.0198 320.008ZM82.309 316.664C82.309 315.8 82.4743 315.101 82.805 314.568C83.1357 314.024 83.557 313.624 84.069 313.368C84.5917 313.101 85.141 312.968 85.717 312.968V314.168C85.2477 314.168 84.7943 314.248 84.357 314.408C83.9303 314.557 83.5783 314.808 83.301 315.16C83.0237 315.512 82.885 315.992 82.885 316.6L82.309 316.664ZM81.605 321V313H82.885V321H81.605ZM91.7793 321L91.7153 319.688V316.776C91.7153 316.147 91.6459 315.629 91.5073 315.224C91.3686 314.808 91.1499 314.493 90.8513 314.28C90.5526 314.067 90.1633 313.96 89.6833 313.96C89.2459 313.96 88.8673 314.051 88.5473 314.232C88.2379 314.403 87.9819 314.68 87.7793 315.064L86.6273 314.616C86.8299 314.243 87.0753 313.923 87.3633 313.656C87.6513 313.379 87.9873 313.171 88.3713 313.032C88.7553 312.883 89.1926 312.808 89.6833 312.808C90.4299 312.808 91.0433 312.957 91.5233 313.256C92.0139 313.544 92.3819 313.976 92.6273 314.552C92.8726 315.117 92.9899 315.821 92.9793 316.664L92.9633 321H91.7793ZM89.3793 321.192C88.4406 321.192 87.7046 320.979 87.1713 320.552C86.6486 320.115 86.3873 319.512 86.3873 318.744C86.3873 317.933 86.6539 317.315 87.1873 316.888C87.7313 316.451 88.4886 316.232 89.4593 316.232H91.7473V317.304H89.7473C89.0006 317.304 88.4673 317.427 88.1473 317.672C87.8379 317.917 87.6833 318.269 87.6833 318.728C87.6833 319.144 87.8379 319.475 88.1473 319.72C88.4566 319.955 88.8886 320.072 89.4433 320.072C89.9019 320.072 90.3019 319.976 90.6433 319.784C90.9846 319.581 91.2459 319.299 91.4273 318.936C91.6193 318.563 91.7153 318.125 91.7153 317.624H92.2593C92.2593 318.712 92.0139 319.581 91.5233 320.232C91.0326 320.872 90.3179 321.192 89.3793 321.192ZM97.8555 321.192C97.0768 321.192 96.4742 320.989 96.0475 320.584C95.6208 320.179 95.4075 319.608 95.4075 318.872V310.504H96.6875V318.744C96.6875 319.149 96.7942 319.464 97.0075 319.688C97.2315 319.901 97.5408 320.008 97.9355 320.008C98.0635 320.008 98.1862 319.992 98.3035 319.96C98.4315 319.917 98.5968 319.821 98.7995 319.672L99.2955 320.712C99.0182 320.893 98.7675 321.016 98.5435 321.08C98.3195 321.155 98.0902 321.192 97.8555 321.192ZM94.0155 314.136V313H99.0875V314.136H94.0155ZM104.224 321.192C103.445 321.192 102.752 321.016 102.144 320.664C101.546 320.301 101.077 319.805 100.736 319.176C100.394 318.547 100.224 317.821 100.224 317C100.224 316.179 100.389 315.453 100.72 314.824C101.061 314.195 101.53 313.704 102.128 313.352C102.736 312.989 103.424 312.808 104.192 312.808C104.981 312.808 105.674 312.989 106.272 313.352C106.88 313.704 107.349 314.195 107.68 314.824C108.021 315.453 108.192 316.179 108.192 317C108.192 317.821 108.021 318.547 107.68 319.176C107.349 319.805 106.885 320.301 106.288 320.664C105.69 321.016 105.002 321.192 104.224 321.192ZM104.224 320.008C104.757 320.008 105.221 319.88 105.616 319.624C106.01 319.368 106.32 319.016 106.544 318.568C106.778 318.12 106.896 317.597 106.896 317C106.896 316.403 106.778 315.88 106.544 315.432C106.32 314.984 106.005 314.632 105.6 314.376C105.194 314.12 104.725 313.992 104.192 313.992C103.669 313.992 103.205 314.12 102.8 314.376C102.405 314.632 102.09 314.984 101.856 315.432C101.632 315.88 101.52 316.403 101.52 317C101.52 317.587 101.632 318.109 101.856 318.568C102.09 319.016 102.41 319.368 102.816 319.624C103.232 319.88 103.701 320.008 104.224 320.008ZM110.513 316.664C110.513 315.8 110.678 315.101 111.009 314.568C111.339 314.024 111.761 313.624 112.273 313.368C112.795 313.101 113.345 312.968 113.921 312.968V314.168C113.451 314.168 112.998 314.248 112.561 314.408C112.134 314.557 111.782 314.808 111.505 315.16C111.227 315.512 111.089 315.992 111.089 316.6L110.513 316.664ZM109.809 321V313H111.089V321H109.809ZM115.135 321V313H116.415V321H115.135ZM115.791 311.144C115.578 311.144 115.391 311.064 115.231 310.904C115.071 310.744 114.991 310.557 114.991 310.344C114.991 310.12 115.071 309.933 115.231 309.784C115.391 309.624 115.578 309.544 115.791 309.544C116.015 309.544 116.202 309.624 116.351 309.784C116.511 309.933 116.591 310.12 116.591 310.344C116.591 310.557 116.511 310.744 116.351 310.904C116.202 311.064 116.015 311.144 115.791 311.144ZM123.542 321L123.478 319.688V316.776C123.478 316.147 123.408 315.629 123.27 315.224C123.131 314.808 122.912 314.493 122.614 314.28C122.315 314.067 121.926 313.96 121.446 313.96C121.008 313.96 120.63 314.051 120.31 314.232C120 314.403 119.744 314.68 119.542 315.064L118.39 314.616C118.592 314.243 118.838 313.923 119.126 313.656C119.414 313.379 119.75 313.171 120.134 313.032C120.518 312.883 120.955 312.808 121.446 312.808C122.192 312.808 122.806 312.957 123.286 313.256C123.776 313.544 124.144 313.976 124.39 314.552C124.635 315.117 124.752 315.821 124.742 316.664L124.726 321H123.542ZM121.142 321.192C120.203 321.192 119.467 320.979 118.934 320.552C118.411 320.115 118.15 319.512 118.15 318.744C118.15 317.933 118.416 317.315 118.95 316.888C119.494 316.451 120.251 316.232 121.222 316.232H123.51V317.304H121.51C120.763 317.304 120.23 317.427 119.91 317.672C119.6 317.917 119.446 318.269 119.446 318.728C119.446 319.144 119.6 319.475 119.91 319.72C120.219 319.955 120.651 320.072 121.206 320.072C121.664 320.072 122.064 319.976 122.406 319.784C122.747 319.581 123.008 319.299 123.19 318.936C123.382 318.563 123.478 318.125 123.478 317.624H124.022C124.022 318.712 123.776 319.581 123.286 320.232C122.795 320.872 122.08 321.192 121.142 321.192ZM126.61 321V309.8H127.89V321H126.61Z" fill="#222222"/>
<path d="M473.862 199L469.366 187.8H470.726L475.286 199H473.862ZM464.758 199L469.318 187.8H470.694L466.198 199H464.758ZM466.918 195.816V194.6H473.142V195.816H466.918ZM476.403 199V191H477.603L477.683 192.472V199H476.403ZM482.019 199V194.904H483.299V199H482.019ZM482.019 194.904C482.019 194.115 481.928 193.512 481.747 193.096C481.565 192.68 481.315 192.397 480.995 192.248C480.675 192.088 480.312 192.008 479.907 192.008C479.203 192.008 478.653 192.259 478.259 192.76C477.875 193.251 477.683 193.949 477.683 194.856H477.059C477.059 194.013 477.181 193.288 477.427 192.68C477.672 192.072 478.029 191.608 478.499 191.288C478.968 190.968 479.533 190.808 480.195 190.808C480.824 190.808 481.368 190.936 481.827 191.192C482.296 191.437 482.659 191.832 482.915 192.376C483.181 192.92 483.309 193.635 483.299 194.52V194.904H482.019ZM488.7 199.192C487.922 199.192 487.228 199.016 486.62 198.664C486.023 198.301 485.554 197.805 485.212 197.176C484.871 196.547 484.7 195.821 484.7 195C484.7 194.179 484.866 193.453 485.196 192.824C485.538 192.195 486.007 191.704 486.604 191.352C487.212 190.989 487.9 190.808 488.668 190.808C489.458 190.808 490.151 190.989 490.748 191.352C491.356 191.704 491.826 192.195 492.156 192.824C492.498 193.453 492.668 194.179 492.668 195C492.668 195.821 492.498 196.547 492.156 197.176C491.826 197.805 491.362 198.301 490.764 198.664C490.167 199.016 489.479 199.192 488.7 199.192ZM488.7 198.008C489.234 198.008 489.698 197.88 490.092 197.624C490.487 197.368 490.796 197.016 491.02 196.568C491.255 196.12 491.372 195.597 491.372 195C491.372 194.403 491.255 193.88 491.02 193.432C490.796 192.984 490.482 192.632 490.076 192.376C489.671 192.12 489.202 191.992 488.668 191.992C488.146 191.992 487.682 192.12 487.276 192.376C486.882 192.632 486.567 192.984 486.332 193.432C486.108 193.88 485.996 194.403 485.996 195C485.996 195.587 486.108 196.109 486.332 196.568C486.567 197.016 486.887 197.368 487.292 197.624C487.708 197.88 488.178 198.008 488.7 198.008ZM497.086 199.192C496.499 199.192 495.987 199.107 495.55 198.936C495.112 198.755 494.744 198.52 494.446 198.232C494.158 197.944 493.95 197.629 493.822 197.288L494.942 196.824C495.123 197.187 495.395 197.48 495.758 197.704C496.12 197.928 496.52 198.04 496.958 198.04C497.459 198.04 497.88 197.944 498.222 197.752C498.563 197.549 498.734 197.267 498.734 196.904C498.734 196.573 498.606 196.307 498.35 196.104C498.104 195.901 497.736 195.736 497.246 195.608L496.478 195.4C495.752 195.208 495.187 194.92 494.782 194.536C494.376 194.141 494.174 193.699 494.174 193.208C494.174 192.451 494.419 191.864 494.91 191.448C495.411 191.021 496.152 190.808 497.134 190.808C497.603 190.808 498.03 190.877 498.414 191.016C498.798 191.155 499.128 191.352 499.406 191.608C499.683 191.853 499.886 192.147 500.014 192.488L498.894 192.984C498.755 192.621 498.526 192.36 498.206 192.2C497.886 192.04 497.496 191.96 497.038 191.96C496.547 191.96 496.163 192.067 495.886 192.28C495.608 192.483 495.47 192.771 495.47 193.144C495.47 193.357 495.582 193.56 495.806 193.752C496.04 193.933 496.382 194.083 496.83 194.2L497.63 194.408C498.152 194.536 498.59 194.728 498.942 194.984C499.294 195.229 499.56 195.512 499.742 195.832C499.923 196.152 500.014 196.493 500.014 196.856C500.014 197.336 499.886 197.752 499.63 198.104C499.374 198.456 499.027 198.728 498.59 198.92C498.152 199.101 497.651 199.192 497.086 199.192ZM511.292 199L511.228 197.512V187.8H512.508V199H511.292ZM508.524 199.192C507.809 199.192 507.18 199.016 506.636 198.664C506.092 198.312 505.665 197.821 505.356 197.192C505.057 196.552 504.908 195.821 504.908 195C504.908 194.168 505.057 193.437 505.356 192.808C505.665 192.179 506.092 191.688 506.636 191.336C507.18 190.984 507.809 190.808 508.524 190.808C509.196 190.808 509.783 190.984 510.284 191.336C510.796 191.688 511.191 192.179 511.468 192.808C511.745 193.437 511.884 194.168 511.884 195C511.884 195.821 511.745 196.552 511.468 197.192C511.191 197.821 510.796 198.312 510.284 198.664C509.783 199.016 509.196 199.192 508.524 199.192ZM508.812 198.024C509.281 198.024 509.697 197.896 510.06 197.64C510.423 197.384 510.705 197.027 510.908 196.568C511.121 196.109 511.228 195.587 511.228 195C511.228 194.413 511.121 193.891 510.908 193.432C510.705 192.973 510.423 192.616 510.06 192.36C509.697 192.104 509.276 191.976 508.796 191.976C508.295 191.976 507.847 192.104 507.452 192.36C507.068 192.616 506.764 192.973 506.54 193.432C506.316 193.891 506.204 194.413 506.204 195C506.204 195.587 506.316 196.109 506.54 196.568C506.764 197.027 507.073 197.384 507.468 197.64C507.863 197.896 508.311 198.024 508.812 198.024ZM518.091 199.192C517.312 199.192 516.624 199.016 516.027 198.664C515.43 198.301 514.96 197.805 514.619 197.176C514.288 196.547 514.123 195.821 514.123 195C514.123 194.179 514.288 193.453 514.619 192.824C514.96 192.195 515.424 191.704 516.011 191.352C516.608 190.989 517.291 190.808 518.059 190.808C518.806 190.808 519.451 190.995 519.995 191.368C520.539 191.731 520.96 192.243 521.259 192.904C521.558 193.565 521.707 194.344 521.707 195.24H515.099L515.419 194.968C515.419 195.608 515.531 196.157 515.755 196.616C515.99 197.075 516.315 197.427 516.731 197.672C517.147 197.907 517.622 198.024 518.155 198.024C518.72 198.024 519.195 197.891 519.579 197.624C519.974 197.357 520.278 197.005 520.491 196.568L521.595 197.128C521.392 197.544 521.12 197.907 520.779 198.216C520.448 198.525 520.054 198.765 519.595 198.936C519.147 199.107 518.646 199.192 518.091 199.192ZM515.499 194.424L515.163 194.168H520.683L520.347 194.44C520.347 193.928 520.246 193.485 520.043 193.112C519.84 192.739 519.568 192.451 519.227 192.248C518.886 192.045 518.491 191.944 518.043 191.944C517.606 191.944 517.19 192.045 516.795 192.248C516.411 192.451 516.096 192.739 515.851 193.112C515.616 193.475 515.499 193.912 515.499 194.424ZM530.458 199.192C529.68 199.192 528.992 199.016 528.394 198.664C527.797 198.301 527.328 197.805 526.986 197.176C526.656 196.547 526.49 195.821 526.49 195C526.49 194.179 526.656 193.453 526.986 192.824C527.328 192.195 527.792 191.704 528.378 191.352C528.976 190.989 529.658 190.808 530.426 190.808C531.173 190.808 531.818 190.995 532.362 191.368C532.906 191.731 533.328 192.243 533.626 192.904C533.925 193.565 534.074 194.344 534.074 195.24H527.466L527.786 194.968C527.786 195.608 527.898 196.157 528.122 196.616C528.357 197.075 528.682 197.427 529.098 197.672C529.514 197.907 529.989 198.024 530.522 198.024C531.088 198.024 531.562 197.891 531.946 197.624C532.341 197.357 532.645 197.005 532.858 196.568L533.962 197.128C533.76 197.544 533.488 197.907 533.146 198.216C532.816 198.525 532.421 198.765 531.962 198.936C531.514 199.107 531.013 199.192 530.458 199.192ZM527.866 194.424L527.53 194.168H533.05L532.714 194.44C532.714 193.928 532.613 193.485 532.41 193.112C532.208 192.739 531.936 192.451 531.594 192.248C531.253 192.045 530.858 191.944 530.41 191.944C529.973 191.944 529.557 192.045 529.162 192.248C528.778 192.451 528.464 192.739 528.218 193.112C527.984 193.475 527.866 193.912 527.866 194.424ZM534.491 199L537.755 194.408L540.059 191H541.579L538.539 195.32L536.043 199H534.491ZM540.235 199L537.771 195.32L534.699 191H536.219L538.539 194.408L541.771 199H540.235ZM542.964 202.2V191H544.164L544.244 192.472V202.2H542.964ZM546.948 199.192C546.276 199.192 545.684 199.016 545.172 198.664C544.671 198.312 544.282 197.821 544.004 197.192C543.727 196.552 543.588 195.821 543.588 195C543.588 194.168 543.727 193.437 544.004 192.808C544.282 192.179 544.671 191.688 545.172 191.336C545.684 190.984 546.276 190.808 546.948 190.808C547.663 190.808 548.292 190.984 548.836 191.336C549.38 191.688 549.802 192.179 550.1 192.808C550.41 193.437 550.564 194.168 550.564 195C550.564 195.821 550.41 196.552 550.1 197.192C549.802 197.821 549.38 198.312 548.836 198.664C548.292 199.016 547.663 199.192 546.948 199.192ZM546.66 198.024C547.162 198.024 547.604 197.896 547.988 197.64C548.383 197.384 548.692 197.027 548.916 196.568C549.151 196.109 549.268 195.587 549.268 195C549.268 194.413 549.156 193.891 548.932 193.432C548.719 192.973 548.415 192.616 548.02 192.36C547.626 192.104 547.178 191.976 546.676 191.976C546.207 191.976 545.786 192.104 545.412 192.36C545.05 192.616 544.762 192.973 544.548 193.432C544.346 193.891 544.244 194.413 544.244 195C544.244 195.587 544.346 196.109 544.548 196.568C544.762 197.027 545.05 197.384 545.412 197.64C545.775 197.896 546.191 198.024 546.66 198.024ZM555.682 199.192C554.903 199.192 554.215 199.016 553.618 198.664C553.02 198.301 552.551 197.805 552.21 197.176C551.879 196.547 551.714 195.821 551.714 195C551.714 194.179 551.879 193.453 552.21 192.824C552.551 192.195 553.015 191.704 553.602 191.352C554.199 190.989 554.882 190.808 555.65 190.808C556.396 190.808 557.042 190.995 557.586 191.368C558.13 191.731 558.551 192.243 558.85 192.904C559.148 193.565 559.298 194.344 559.298 195.24H552.69L553.01 194.968C553.01 195.608 553.122 196.157 553.346 196.616C553.58 197.075 553.906 197.427 554.322 197.672C554.738 197.907 555.212 198.024 555.746 198.024C556.311 198.024 556.786 197.891 557.17 197.624C557.564 197.357 557.868 197.005 558.082 196.568L559.186 197.128C558.983 197.544 558.711 197.907 558.37 198.216C558.039 198.525 557.644 198.765 557.186 198.936C556.738 199.107 556.236 199.192 555.682 199.192ZM553.09 194.424L552.754 194.168H558.274L557.938 194.44C557.938 193.928 557.836 193.485 557.634 193.112C557.431 192.739 557.159 192.451 556.818 192.248C556.476 192.045 556.082 191.944 555.634 191.944C555.196 191.944 554.78 192.045 554.386 192.248C554.002 192.451 553.687 192.739 553.442 193.112C553.207 193.475 553.09 193.912 553.09 194.424ZM561.456 194.664C561.456 193.8 561.621 193.101 561.952 192.568C562.283 192.024 562.704 191.624 563.216 191.368C563.739 191.101 564.288 190.968 564.864 190.968V192.168C564.395 192.168 563.941 192.248 563.504 192.408C563.077 192.557 562.725 192.808 562.448 193.16C562.171 193.512 562.032 193.992 562.032 194.6L561.456 194.664ZM560.752 199V191H562.032V199H560.752ZM566.078 199V191H567.358V199H566.078ZM566.734 189.144C566.521 189.144 566.334 189.064 566.174 188.904C566.014 188.744 565.934 188.557 565.934 188.344C565.934 188.12 566.014 187.933 566.174 187.784C566.334 187.624 566.521 187.544 566.734 187.544C566.958 187.544 567.145 187.624 567.294 187.784C567.454 187.933 567.534 188.12 567.534 188.344C567.534 188.557 567.454 188.744 567.294 188.904C567.145 189.064 566.958 189.144 566.734 189.144ZM573.061 199.192C572.282 199.192 571.594 199.016 570.997 198.664C570.4 198.301 569.93 197.805 569.589 197.176C569.258 196.547 569.093 195.821 569.093 195C569.093 194.179 569.258 193.453 569.589 192.824C569.93 192.195 570.394 191.704 570.981 191.352C571.578 190.989 572.261 190.808 573.029 190.808C573.776 190.808 574.421 190.995 574.965 191.368C575.509 191.731 575.93 192.243 576.229 192.904C576.528 193.565 576.677 194.344 576.677 195.24H570.069L570.389 194.968C570.389 195.608 570.501 196.157 570.725 196.616C570.96 197.075 571.285 197.427 571.701 197.672C572.117 197.907 572.592 198.024 573.125 198.024C573.69 198.024 574.165 197.891 574.549 197.624C574.944 197.357 575.248 197.005 575.461 196.568L576.565 197.128C576.362 197.544 576.09 197.907 575.749 198.216C575.418 198.525 575.024 198.765 574.565 198.936C574.117 199.107 573.616 199.192 573.061 199.192ZM570.469 194.424L570.133 194.168H575.653L575.317 194.44C575.317 193.928 575.216 193.485 575.013 193.112C574.81 192.739 574.538 192.451 574.197 192.248C573.856 192.045 573.461 191.944 573.013 191.944C572.576 191.944 572.16 192.045 571.765 192.248C571.381 192.451 571.066 192.739 570.821 193.112C570.586 193.475 570.469 193.912 570.469 194.424ZM574.341 189.688L572.245 187.656V187.608H573.813L575.749 189.688H574.341ZM570.293 189.688L572.229 187.608H573.797V187.656L571.701 189.688H570.293ZM578.147 199V191H579.347L579.427 192.472V199H578.147ZM583.763 199V194.904H585.043V199H583.763ZM583.763 194.904C583.763 194.115 583.672 193.512 583.491 193.096C583.31 192.68 583.059 192.397 582.739 192.248C582.419 192.088 582.056 192.008 581.651 192.008C580.947 192.008 580.398 192.259 580.003 192.76C579.619 193.251 579.427 193.949 579.427 194.856H578.803C578.803 194.013 578.926 193.288 579.171 192.68C579.416 192.072 579.774 191.608 580.243 191.288C580.712 190.968 581.278 190.808 581.939 190.808C582.568 190.808 583.112 190.936 583.571 191.192C584.04 191.437 584.403 191.832 584.659 192.376C584.926 192.92 585.054 193.635 585.043 194.52V194.904H583.763ZM590.477 199.192C589.687 199.192 588.989 199.016 588.381 198.664C587.773 198.301 587.298 197.805 586.957 197.176C586.615 196.547 586.445 195.821 586.445 195C586.445 194.179 586.61 193.453 586.941 192.824C587.282 192.195 587.757 191.704 588.365 191.352C588.973 190.989 589.666 190.808 590.445 190.808C591.213 190.808 591.901 190.984 592.509 191.336C593.117 191.688 593.581 192.184 593.901 192.824L592.733 193.352C592.519 192.925 592.21 192.595 591.805 192.36C591.399 192.115 590.935 191.992 590.413 191.992C589.89 191.992 589.426 192.12 589.021 192.376C588.626 192.632 588.311 192.989 588.077 193.448C587.853 193.896 587.741 194.413 587.741 195C587.741 195.587 587.853 196.109 588.077 196.568C588.311 197.016 588.631 197.368 589.037 197.624C589.453 197.88 589.922 198.008 590.445 198.008C590.967 198.008 591.431 197.875 591.837 197.608C592.253 197.341 592.567 196.968 592.781 196.488L593.949 197.016C593.629 197.699 593.165 198.232 592.557 198.616C591.949 199 591.255 199.192 590.477 199.192ZM595.485 199V191H596.765V199H595.485ZM596.141 189.144C595.928 189.144 595.741 189.064 595.581 188.904C595.421 188.744 595.341 188.557 595.341 188.344C595.341 188.12 595.421 187.933 595.581 187.784C595.741 187.624 595.928 187.544 596.141 187.544C596.365 187.544 596.552 187.624 596.701 187.784C596.861 187.933 596.941 188.12 596.941 188.344C596.941 188.557 596.861 188.744 596.701 188.904C596.552 189.064 596.365 189.144 596.141 189.144ZM603.892 199L603.828 197.688V194.776C603.828 194.147 603.758 193.629 603.62 193.224C603.481 192.808 603.262 192.493 602.964 192.28C602.665 192.067 602.276 191.96 601.796 191.96C601.358 191.96 600.98 192.051 600.66 192.232C600.35 192.403 600.094 192.68 599.892 193.064L598.74 192.616C598.942 192.243 599.188 191.923 599.476 191.656C599.764 191.379 600.1 191.171 600.484 191.032C600.868 190.883 601.305 190.808 601.796 190.808C602.542 190.808 603.156 190.957 603.636 191.256C604.126 191.544 604.494 191.976 604.74 192.552C604.985 193.117 605.102 193.821 605.092 194.664L605.076 199H603.892ZM601.492 199.192C600.553 199.192 599.817 198.979 599.284 198.552C598.761 198.115 598.5 197.512 598.5 196.744C598.5 195.933 598.766 195.315 599.3 194.888C599.844 194.451 600.601 194.232 601.572 194.232H603.86V195.304H601.86C601.113 195.304 600.58 195.427 600.26 195.672C599.95 195.917 599.796 196.269 599.796 196.728C599.796 197.144 599.95 197.475 600.26 197.72C600.569 197.955 601.001 198.072 601.556 198.072C602.014 198.072 602.414 197.976 602.756 197.784C603.097 197.581 603.358 197.299 603.54 196.936C603.732 196.563 603.828 196.125 603.828 195.624H604.372C604.372 196.712 604.126 197.581 603.636 198.232C603.145 198.872 602.43 199.192 601.492 199.192ZM559.631 223.192C558.852 223.192 558.164 223.016 557.567 222.664C556.97 222.301 556.5 221.805 556.159 221.176C555.828 220.547 555.663 219.821 555.663 219C555.663 218.179 555.828 217.453 556.159 216.824C556.5 216.195 556.964 215.704 557.551 215.352C558.148 214.989 558.831 214.808 559.599 214.808C560.346 214.808 560.991 214.995 561.535 215.368C562.079 215.731 562.5 216.243 562.799 216.904C563.098 217.565 563.247 218.344 563.247 219.24H556.639L556.959 218.968C556.959 219.608 557.071 220.157 557.295 220.616C557.53 221.075 557.855 221.427 558.271 221.672C558.687 221.907 559.162 222.024 559.695 222.024C560.26 222.024 560.735 221.891 561.119 221.624C561.514 221.357 561.818 221.005 562.031 220.568L563.135 221.128C562.932 221.544 562.66 221.907 562.319 222.216C561.988 222.525 561.594 222.765 561.135 222.936C560.687 223.107 560.186 223.192 559.631 223.192ZM557.039 218.424L556.703 218.168H562.223L561.887 218.44C561.887 217.928 561.786 217.485 561.583 217.112C561.38 216.739 561.108 216.451 560.767 216.248C560.426 216.045 560.031 215.944 559.583 215.944C559.146 215.944 558.73 216.045 558.335 216.248C557.951 216.451 557.636 216.739 557.391 217.112C557.156 217.475 557.039 217.912 557.039 218.424ZM564.701 223V215H565.901L565.965 216.12C566.211 215.693 566.525 215.368 566.909 215.144C567.293 214.92 567.741 214.808 568.253 214.808C568.893 214.808 569.437 214.957 569.885 215.256C570.344 215.555 570.675 216.008 570.877 216.616C571.101 216.029 571.427 215.581 571.853 215.272C572.291 214.963 572.808 214.808 573.405 214.808C574.301 214.808 575.005 215.107 575.517 215.704C576.04 216.301 576.296 217.208 576.285 218.424V223H575.005V218.904C575.005 218.115 574.92 217.512 574.749 217.096C574.589 216.68 574.371 216.397 574.093 216.248C573.816 216.088 573.496 216.008 573.133 216.008C572.504 216.008 572.013 216.259 571.661 216.76C571.309 217.251 571.133 217.949 571.133 218.856V223H569.853V218.904C569.853 218.115 569.768 217.512 569.597 217.096C569.437 216.68 569.213 216.397 568.925 216.248C568.648 216.088 568.328 216.008 567.965 216.008C567.347 216.008 566.861 216.259 566.509 216.76C566.157 217.251 565.981 217.949 565.981 218.856V223H564.701ZM582.312 223V211.8H583.672V223H582.312ZM589.151 223.224C588.522 223.224 587.962 223.101 587.471 222.856C586.981 222.611 586.591 222.264 586.303 221.816C586.026 221.368 585.887 220.861 585.887 220.296C585.887 219.827 585.978 219.405 586.159 219.032C586.341 218.659 586.581 218.323 586.879 218.024C587.189 217.715 587.525 217.432 587.887 217.176L589.344 216.184C589.61 215.992 589.871 215.795 590.128 215.592C590.394 215.389 590.618 215.165 590.799 214.92C590.981 214.664 591.071 214.381 591.071 214.072C591.071 213.656 590.927 213.325 590.64 213.08C590.362 212.835 590.005 212.712 589.568 212.712C589.183 212.712 588.853 212.84 588.575 213.096C588.309 213.352 588.175 213.667 588.175 214.04C588.175 214.36 588.271 214.648 588.463 214.904C588.655 215.149 588.895 215.443 589.183 215.784L591.151 218.152L595.151 223H593.519L590.063 218.84L588.143 216.52C587.898 216.221 587.674 215.939 587.471 215.672C587.279 215.405 587.13 215.139 587.023 214.872C586.917 214.605 586.863 214.328 586.863 214.04C586.863 213.56 586.981 213.139 587.215 212.776C587.461 212.403 587.781 212.109 588.175 211.896C588.581 211.683 589.034 211.576 589.536 211.576C590.069 211.576 590.549 211.683 590.976 211.896C591.413 212.099 591.754 212.387 591.999 212.76C592.245 213.133 592.367 213.576 592.367 214.088C592.367 214.504 592.255 214.899 592.031 215.272C591.807 215.635 591.503 215.981 591.12 216.312C590.746 216.632 590.319 216.957 589.839 217.288L588.671 218.104C588.437 218.264 588.207 218.445 587.983 218.648C587.759 218.84 587.578 219.069 587.439 219.336C587.301 219.592 587.231 219.907 587.231 220.28C587.231 220.803 587.413 221.229 587.775 221.56C588.149 221.891 588.618 222.056 589.183 222.056C589.738 222.056 590.255 221.965 590.735 221.784C591.216 221.592 591.637 221.32 591.999 220.968C592.373 220.616 592.656 220.195 592.847 219.704C593.05 219.213 593.151 218.675 593.151 218.088H594.448C594.448 219.08 594.218 219.965 593.76 220.744C593.311 221.523 592.687 222.131 591.887 222.568C591.098 223.005 590.186 223.224 589.151 223.224ZM596.632 223V211.8H600.04C601.096 211.8 602.024 212.04 602.824 212.52C603.635 212.989 604.27 213.645 604.728 214.488C605.187 215.331 605.416 216.301 605.416 217.4C605.416 218.488 605.187 219.453 604.728 220.296C604.27 221.139 603.635 221.8 602.824 222.28C602.024 222.76 601.096 223 600.04 223H596.632ZM597.992 221.752H600.04C600.606 221.752 601.128 221.645 601.608 221.432C602.088 221.208 602.51 220.893 602.872 220.488C603.246 220.083 603.534 219.619 603.736 219.096C603.95 218.563 604.056 217.997 604.056 217.4C604.056 216.803 603.95 216.243 603.736 215.72C603.534 215.187 603.246 214.717 602.872 214.312C602.51 213.907 602.088 213.597 601.608 213.384C601.128 213.16 600.606 213.048 600.04 213.048H597.992V221.752Z" fill="#222222"/>
<rect x="308.5" y="133.5" width="132" height="132" rx="63.5" fill="#33617A"/>
<rect x="308.5" y="133.5" width="132" height="132" rx="63.5" stroke="white" stroke-width="3"/>
<path d="M340.28 213.5V210.7C340.28 209.82 340.453 208.953 340.8 208.1C341.173 207.22 341.693 206.353 342.36 205.5C343.053 204.647 343.893 203.847 344.88 203.1L350.68 198.74C351.373 198.26 351.973 197.713 352.48 197.1C353.013 196.46 353.427 195.807 353.72 195.14C354.013 194.447 354.16 193.78 354.16 193.14C354.16 192.207 353.933 191.367 353.48 190.62C353.027 189.847 352.387 189.233 351.56 188.78C350.733 188.327 349.76 188.1 348.64 188.1C347.547 188.1 346.587 188.313 345.76 188.74C344.933 189.14 344.253 189.687 343.72 190.38C343.187 191.047 342.8 191.767 342.56 192.54L339.12 191.86C339.44 190.66 340.013 189.54 340.84 188.5C341.693 187.46 342.773 186.62 344.08 185.98C345.387 185.34 346.84 185.02 348.44 185.02C350.307 185.02 351.92 185.38 353.28 186.1C354.64 186.793 355.693 187.753 356.44 188.98C357.213 190.18 357.6 191.553 357.6 193.1C357.6 194.567 357.2 195.953 356.4 197.26C355.6 198.567 354.44 199.833 352.92 201.06L347.44 205.22C346.373 206.02 345.547 206.86 344.96 207.74C344.4 208.62 344.08 209.54 344 210.5H358V213.5H340.28ZM372.744 213.98C370.61 213.98 368.717 213.367 367.064 212.14C365.41 210.887 364.117 209.18 363.184 207.02C362.25 204.833 361.784 202.327 361.784 199.5C361.784 196.673 362.25 194.18 363.184 192.02C364.117 189.833 365.397 188.127 367.024 186.9C368.677 185.647 370.584 185.02 372.744 185.02C374.904 185.02 376.797 185.647 378.424 186.9C380.077 188.127 381.37 189.833 382.304 192.02C383.264 194.18 383.744 196.673 383.744 199.5C383.744 202.327 383.277 204.833 382.344 207.02C381.41 209.18 380.117 210.887 378.464 212.14C376.81 213.367 374.904 213.98 372.744 213.98ZM372.744 210.94C374.237 210.94 375.557 210.447 376.704 209.46C377.877 208.473 378.784 207.127 379.424 205.42C380.09 203.713 380.424 201.74 380.424 199.5C380.424 197.26 380.09 195.287 379.424 193.58C378.784 191.847 377.877 190.5 376.704 189.54C375.557 188.553 374.237 188.06 372.744 188.06C371.25 188.06 369.93 188.553 368.784 189.54C367.637 190.5 366.73 191.847 366.064 193.58C365.424 195.287 365.104 197.26 365.104 199.5C365.104 201.74 365.424 203.713 366.064 205.42C366.73 207.127 367.637 208.473 368.784 209.46C369.957 210.447 371.277 210.94 372.744 210.94ZM396.249 210.66V192.5H399.089V210.66H396.249ZM388.569 203.02V200.18H406.689V203.02H388.569Z" fill="#F6F6F6"/>
<path d="M335.5 167L610 167" stroke="#222222" stroke-width="0.5"/>
<defs>
<linearGradient id="paint0_linear_843_1540" x1="330.5" y1="203" x2="330.5" y2="0" gradientUnits="userSpaceOnUse">
<stop stop-color="#5FB8A9"/>
<stop offset="1" stop-color="#85CDDD"/>
</linearGradient>
<linearGradient id="paint1_linear_843_1540" x1="301.5" y1="361" x2="301.5" y2="252" gradientUnits="userSpaceOnUse">
<stop stop-color="#5FB8A9"/>
<stop offset="1" stop-color="#85CDDD"/>
</linearGradient>
</defs>
</svg>
