<svg width="55" height="56" viewBox="0 0 55 56" fill="none" xmlns="http://www.w3.org/2000/svg">
<g clip-path="url(#clip0_131_795)">
<path d="M27.5023 0H27.4977C12.3111 0 0 12.535 0 27.9976V28.0024C0 43.465 12.3111 56 27.4977 56H27.5023C42.6889 56 55 43.465 55 28.0024V27.9976C55 12.535 42.6889 0 27.5023 0Z" fill="#5FB8A9"/>
<path d="M26.7612 41.1541C19.4335 41.1541 13.4855 35.0979 13.4855 27.637C20.8133 27.637 26.7612 33.6931 26.7612 41.1541Z" fill="white"/>
<path d="M41.5471 14.0344V27.5942C41.5471 35.0837 35.5852 41.154 28.2295 41.154V27.5942C28.2295 23.8495 29.7211 20.456 32.1264 18.007C34.5364 15.5532 37.8646 14.0392 41.5425 14.0392L41.5471 14.0344Z" fill="white"/>
</g>
<defs>
<clipPath id="clip0_131_795">
<rect width="55" height="56" fill="white"/>
</clipPath>
</defs>
</svg>
