<?xml version="1.0" encoding="UTF-8"?><svg id="Camada_1" xmlns="http://www.w3.org/2000/svg" xmlns:xlink="http://www.w3.org/1999/xlink" viewBox="0 0 610 361"><defs><style>.cls-1{fill:url(#Gradiente_sem_nome);}.cls-2{fill:url(#Gradiente_sem_nome_2);}.cls-3{fill:#f6f6f6;}.cls-4{fill:#33617a;}.cls-5{stroke:#fff;stroke-width:3px;}.cls-5,.cls-6{fill:none;}.cls-7{fill:#85cddd;}.cls-6{stroke:#222;stroke-width:.5px;}.cls-8{fill:#222;}</style><linearGradient id="Gradiente_sem_nome" x1="330.5" y1="159" x2="330.5" y2="362" gradientTransform="translate(0 362) scale(1 -1)" gradientUnits="userSpaceOnUse"><stop offset="0" stop-color="#5fb8a9"/><stop offset="1" stop-color="#85cddd"/></linearGradient><linearGradient id="Gradiente_sem_nome_2" x1="301.5" y1="1" x2="301.5" y2="110" gradientTransform="translate(0 362) scale(1 -1)" gradientUnits="userSpaceOnUse"><stop offset="0" stop-color="#5fb8a9"/><stop offset="1" stop-color="#85cddd"/></linearGradient></defs><path class="cls-1" d="M330.5,0h0c56.06,0,101.5,45.44,101.5,101.5h0c0,56.06-45.44,101.5-101.5,101.5h0c-56.06,0-101.5-45.44-101.5-101.5h0C229,45.44,274.44,0,330.5,0Z"/><path class="cls-8" d="M289.96,109.74c.59-.88,1.41-1.72,2.48-2.52l5.48-4.16c1.52-1.23,2.68-2.49,3.48-3.8.8-1.31,1.2-2.69,1.2-4.16,0-1.55-.39-2.92-1.16-4.12-.75-1.23-1.8-2.19-3.16-2.88-1.36-.72-2.97-1.08-4.84-1.08-1.6,0-3.05.32-4.36.96s-2.39,1.48-3.24,2.52c-.83,1.04-1.4,2.16-1.72,3.36l3.44.68c.24-.77.63-1.49,1.16-2.16.53-.69,1.21-1.24,2.04-1.64.83-.43,1.79-.64,2.88-.64s2.09.23,2.92.68c.83.45,1.47,1.07,1.92,1.84.45.75.68,1.59.68,2.52,0,.64-.15,1.31-.44,2-.29.67-.71,1.32-1.24,1.96-.51.61-1.11,1.16-1.8,1.64l-5.8,4.36c-.99.75-1.83,1.55-2.52,2.4-.67.85-1.19,1.72-1.56,2.6-.35.85-.52,1.72-.52,2.6v2.8h17.72v-3h-14c.08-.96.4-1.88.96-2.76Z"/><path class="cls-8" d="M321.74,99.1c-1.33-.75-2.85-1.12-4.56-1.12-.93,0-1.85.13-2.76.4-.91.27-1.73.63-2.48,1.08l.84-8.92h11.92v-3.04h-14.92l-1.36,14.8,3.04.72c.53-.64,1.28-1.17,2.24-1.6.96-.45,1.93-.68,2.92-.68,1.81,0,3.28.57,4.4,1.72,1.12,1.15,1.68,2.63,1.68,4.44s-.59,3.33-1.76,4.48c-1.15,1.12-2.64,1.68-4.48,1.68-1.17,0-2.31-.27-3.4-.8-1.09-.53-2.11-1.39-3.04-2.56l-2.72,1.56c.67,1.09,1.51,1.99,2.52,2.68,1.04.69,2.13,1.21,3.28,1.56,1.17.32,2.32.48,3.44.48,1.87,0,3.51-.39,4.92-1.16,1.44-.77,2.56-1.84,3.36-3.2.83-1.39,1.24-2.99,1.24-4.8s-.39-3.27-1.16-4.6c-.77-1.33-1.83-2.37-3.16-3.12Z"/><path class="cls-8" d="M346.03,88.9c-1.63-1.25-3.52-1.88-5.68-1.88s-4.07.63-5.72,1.88c-1.63,1.23-2.91,2.93-3.84,5.12-.93,2.16-1.4,4.65-1.4,7.48s.47,5.33,1.4,7.52c.93,2.16,2.23,3.87,3.88,5.12,1.65,1.23,3.55,1.84,5.68,1.84s4.07-.61,5.72-1.84c1.65-1.25,2.95-2.96,3.88-5.12.93-2.19,1.4-4.69,1.4-7.52s-.48-5.32-1.44-7.48c-.93-2.19-2.23-3.89-3.88-5.12ZM347.03,107.42c-.64,1.71-1.55,3.05-2.72,4.04-1.15.99-2.47,1.48-3.96,1.48s-2.79-.49-3.96-1.48c-1.15-.99-2.05-2.33-2.72-4.04-.64-1.71-.96-3.68-.96-5.92s.32-4.21.96-5.92c.67-1.73,1.57-3.08,2.72-4.04,1.15-.99,2.47-1.48,3.96-1.48s2.81.49,3.96,1.48c1.17.96,2.08,2.31,2.72,4.04.67,1.71,1,3.68,1,5.92s-.33,4.21-1,5.92Z"/><polygon class="cls-8" points="374.3 102.18 366.7 102.18 366.7 94.5 363.86 94.5 363.86 102.18 356.18 102.18 356.18 105.02 363.86 105.02 363.86 112.66 366.7 112.66 366.7 105.02 374.3 105.02 374.3 102.18"/><path class="cls-7" d="M238,130.5h0c45.56,0,82.5,36.94,82.5,82.5h0c0,45.56-36.94,82.5-82.5,82.5h0c-45.56,0-82.5-36.94-82.5-82.5h0c0-45.56,36.94-82.5,82.5-82.5Z"/><path class="cls-5" d="M238,130.5h0c45.56,0,82.5,36.94,82.5,82.5h0c0,45.56-36.94,82.5-82.5,82.5h0c-45.56,0-82.5-36.94-82.5-82.5h0c0-45.56,36.94-82.5,82.5-82.5Z"/><path class="cls-8" d="M241.74,210.6c-1.33-.75-2.85-1.12-4.56-1.12-.93,0-1.85.13-2.76.4-.91.27-1.73.63-2.48,1.08l.84-8.92h11.92v-3.04h-14.92l-1.36,14.8,3.04.72c.53-.64,1.28-1.17,2.24-1.6.96-.45,1.93-.68,2.92-.68,1.81,0,3.28.57,4.4,1.72,1.12,1.15,1.68,2.63,1.68,4.44s-.59,3.33-1.76,4.48c-1.15,1.12-2.64,1.68-4.48,1.68-1.17,0-2.31-.27-3.4-.8-1.09-.53-2.11-1.39-3.04-2.56l-2.72,1.56c.67,1.09,1.51,1.99,2.52,2.68,1.04.69,2.13,1.21,3.28,1.56,1.17.32,2.32.48,3.44.48,1.87,0,3.51-.39,4.92-1.16,1.44-.77,2.56-1.84,3.36-3.2.83-1.39,1.24-2.99,1.24-4.8s-.39-3.27-1.16-4.6c-.77-1.33-1.83-2.37-3.16-3.12Z"/><path class="cls-8" d="M209.96,221.24c.59-.88,1.41-1.72,2.48-2.52l5.48-4.16c1.52-1.23,2.68-2.49,3.48-3.8s1.2-2.69,1.2-4.16c0-1.55-.39-2.92-1.16-4.12-.75-1.23-1.8-2.19-3.16-2.88-1.36-.72-2.97-1.08-4.84-1.08-1.6,0-3.05.32-4.36.96s-2.39,1.48-3.24,2.52c-.83,1.04-1.4,2.16-1.72,3.36l3.44.68c.24-.77.63-1.49,1.16-2.16.53-.69,1.21-1.24,2.04-1.64.83-.43,1.79-.64,2.88-.64s2.09.23,2.92.68c.83.45,1.47,1.07,1.92,1.84.45.75.68,1.59.68,2.52,0,.64-.15,1.31-.44,2-.29.67-.71,1.32-1.24,1.96-.51.61-1.11,1.16-1.8,1.64l-5.8,4.36c-.99.75-1.83,1.55-2.52,2.4-.67.85-1.19,1.72-1.56,2.6-.35.85-.52,1.72-.52,2.6v2.8h17.72v-3h-14c.08-.96.4-1.88.96-2.76Z"/><polygon class="cls-8" points="269.07 213.68 261.47 213.68 261.47 206 258.63 206 258.63 213.68 250.95 213.68 250.95 216.52 258.63 216.52 258.63 224.16 261.47 224.16 261.47 216.52 269.07 216.52 269.07 213.68"/><path class="cls-2" d="M301.5,253.5h0c29.27,0,53,23.73,53,53h0c0,29.27-23.73,53-53,53h0c-29.27,0-53-23.73-53-53h0c0-29.27,23.73-53,53-53Z"/><path class="cls-5" d="M301.5,253.5h0c29.27,0,53,23.73,53,53h0c0,29.27-23.73,53-53,53h0c-29.27,0-53-23.73-53-53h0c0-29.27,23.73-53,53-53Z"/><path class="cls-8" d="M276.3,294.5c-.83.64-1.63,1.16-2.4,1.56-.77.4-1.44.59-2,.56v3.08c.99.03,1.97-.17,2.96-.6.99-.45,1.96-1.05,2.92-1.8.14-.11.27-.23.4-.34v23.54h3.32v-28h-3.04c-.61.69-1.33,1.36-2.16,2Z"/><polygon class="cls-8" points="329.75 307.18 322.15 307.18 322.15 299.5 319.31 299.5 319.31 307.18 311.63 307.18 311.63 310.02 319.31 310.02 319.31 317.66 322.15 317.66 322.15 310.02 329.75 310.02 329.75 307.18"/><path class="cls-8" d="M302.42,304.1c-1.33-.75-2.85-1.12-4.56-1.12-.93,0-1.85.13-2.76.4-.91.27-1.73.63-2.48,1.08l.84-8.92h11.92v-3.04h-14.92l-1.36,14.8,3.04.72c.53-.64,1.28-1.17,2.24-1.6.96-.45,1.93-.68,2.92-.68,1.81,0,3.28.57,4.4,1.72,1.12,1.15,1.68,2.63,1.68,4.44s-.59,3.33-1.76,4.48c-1.15,1.12-2.64,1.68-4.48,1.68-1.17,0-2.31-.27-3.4-.8-1.09-.53-2.11-1.39-3.04-2.56l-2.72,1.56c.67,1.09,1.51,1.99,2.52,2.68,1.04.69,2.13,1.21,3.28,1.56,1.17.32,2.32.48,3.44.48,1.87,0,3.51-.39,4.92-1.16,1.44-.77,2.56-1.84,3.36-3.2.83-1.39,1.24-2.99,1.24-4.8s-.39-3.27-1.16-4.6c-.77-1.33-1.83-2.37-3.16-3.12Z"/><path class="cls-6" d="M275,72h301.5"/><path class="cls-6" d="M0,181h269"/><path class="cls-6" d="M46,276h284"/><path class="cls-8" d="M456.07,80.8h-1.38l-4.56,11.2h1.44l1.28-3.18h5.11l1.28,3.18h1.42l-4.56-11.2h-.03ZM453.34,87.6l2.07-5.15,2.07,5.15h-4.13Z"/><path class="cls-8" d="M463.06,85.47v-1.47h-1.28v8h1.28v-4.4c0-.61.14-1.09.42-1.44.28-.35.63-.6,1.06-.75.44-.16.89-.24,1.36-.24v-1.2c-.58,0-1.13.13-1.65.4-.48.24-.87.61-1.18,1.1Z"/><path class="cls-8" d="M470.48,90.96c-.12.03-.24.05-.37.05-.39,0-.7-.11-.93-.32-.21-.22-.32-.54-.32-.94v-4.61h2.4v-1.14h-2.4v-2.5h-1.28v2.5h-1.39v1.14h1.39v4.74c0,.74.21,1.31.64,1.71.43.41,1.03.61,1.81.61.23,0,.46-.04.69-.11.22-.06.47-.19.75-.37l-.5-1.04c-.2.15-.37.25-.5.29Z"/><path class="cls-8" d="M473.65,80.54c-.21,0-.4.08-.56.24-.16.15-.24.34-.24.56s.08.4.24.56c.16.16.35.24.56.24.22,0,.41-.08.56-.24.16-.16.24-.35.24-.56,0-.22-.08-.41-.24-.56-.15-.16-.34-.24-.56-.24Z"/><rect class="cls-8" x="472.99" y="84" width="1.28" height="8"/><path class="cls-8" d="M482.34,85.42c-.26-.44-.56-.83-.96-1.1-.5-.34-1.09-.51-1.76-.51-.71,0-1.34.17-1.89.51s-.97.82-1.28,1.44c-.3.61-.45,1.32-.45,2.13s.15,1.49.45,2.11c.31.61.74,1.08,1.28,1.42s1.17.51,1.89.51c.67,0,1.26-.17,1.76-.51.4-.27.7-.65.96-1.09v.91c0,.69-.12,1.26-.35,1.7-.22.45-.54.77-.96.98-.41.21-.86.32-1.38.32-.39,0-.77-.04-1.12-.13-.34-.07-.64-.17-.9-.29-.26-.11-.45-.2-.59-.27l-.48,1.04c.13.09.34.19.62.3.3.13.66.24,1.07.34.43.11.9.16,1.41.16.76,0,1.43-.15,2.03-.46.6-.31,1.07-.77,1.41-1.39.34-.62.51-1.39.51-2.3v-7.23h-1.28v1.42ZM482.02,89.41c-.2.44-.49.78-.85,1.04-.36.26-.78.38-1.25.38-.5,0-.95-.13-1.34-.38-.38-.26-.69-.6-.91-1.04-.22-.45-.34-.97-.34-1.55s.11-1.07.32-1.5c.22-.45.53-.79.91-1.04.39-.26.84-.38,1.34-.38s.9.13,1.25.38c.36.25.65.59.85,1.04.21.44.32.94.32,1.5s-.1,1.1-.3,1.55Z"/><path class="cls-8" d="M491.28,84.35c-.6-.36-1.29-.54-2.08-.54s-1.46.18-2.06.54c-.6.35-1.07.84-1.41,1.47-.33.63-.5,1.35-.5,2.18s.17,1.55.51,2.18c.34.63.81,1.13,1.41,1.49.61.35,1.3.53,2.08.53s1.47-.18,2.06-.53c.6-.36,1.06-.86,1.39-1.49.34-.63.51-1.35.51-2.18s-.17-1.55-.51-2.18c-.33-.63-.8-1.12-1.41-1.47ZM491.56,89.57c-.22.45-.53.8-.93,1.06-.39.26-.86.38-1.39.38s-.99-.13-1.41-.38c-.4-.26-.72-.61-.96-1.06-.22-.46-.34-.98-.34-1.57s.11-1.12.34-1.57c.23-.45.55-.8.94-1.06.41-.26.87-.38,1.39-.38s1,.13,1.41.38c.41.26.72.61.94,1.06.23.45.35.97.35,1.57s-.12,1.12-.35,1.57Z"/><path class="cls-8" d="M497.57,84.96c.46,0,.85.08,1.17.24.32.16.55.42.69.78l1.12-.5c-.13-.34-.33-.63-.61-.88-.28-.26-.61-.45-.99-.59-.38-.14-.81-.21-1.28-.21-.98,0-1.72.21-2.22.64-.49.42-.74,1-.74,1.76,0,.49.2.93.61,1.33.41.38.97.67,1.7.86l.77.21c.49.13.86.29,1.1.5.26.2.38.47.38.8,0,.36-.17.65-.51.85-.34.19-.76.29-1.26.29-.44,0-.84-.11-1.2-.34-.36-.22-.64-.52-.82-.88l-1.12.46c.13.34.34.66.62.94.3.29.67.52,1.1.7.44.17.95.26,1.54.26s1.07-.09,1.5-.27c.44-.19.78-.46,1.04-.82s.38-.77.38-1.25c0-.36-.09-.7-.27-1.02-.18-.32-.45-.6-.8-.85-.35-.26-.79-.45-1.31-.58l-.8-.21c-.45-.12-.79-.27-1.02-.45-.22-.19-.34-.39-.34-.61,0-.37.14-.66.42-.86.28-.21.66-.32,1.15-.32Z"/><path class="cls-8" d="M510.84,90.61c-.41.27-.87.4-1.39.4s-.99-.13-1.41-.38c-.41-.26-.73-.61-.96-1.06-.22-.46-.34-.98-.34-1.57s.11-1.1.34-1.55c.23-.46.55-.82.94-1.07.4-.26.87-.38,1.39-.38s.99.12,1.39.37c.41.23.71.57.93.99l1.17-.53c-.32-.64-.78-1.14-1.39-1.49-.61-.35-1.3-.53-2.06-.53s-1.47.18-2.08.54c-.61.35-1.08.84-1.42,1.47-.33.63-.5,1.35-.5,2.18s.17,1.55.51,2.18c.34.63.82,1.13,1.42,1.49.61.35,1.31.53,2.1.53s1.47-.19,2.08-.58c.61-.38,1.07-.92,1.39-1.6l-1.17-.53c-.21.48-.53.85-.94,1.12Z"/><path class="cls-8" d="M515.14,80.54c-.21,0-.4.08-.56.24-.16.15-.24.34-.24.56s.08.4.24.56c.16.16.35.24.56.24.22,0,.41-.08.56-.24.16-.16.24-.35.24-.56,0-.22-.08-.41-.24-.56-.15-.16-.34-.24-.56-.24Z"/><rect class="cls-8" x="514.48" y="84" width="1.28" height="8"/><path class="cls-8" d="M524.64,85.9c-.3-.66-.72-1.17-1.26-1.54-.54-.37-1.19-.56-1.94-.56s-1.45.18-2.05.54c-.59.35-1.05.84-1.39,1.47-.33.63-.5,1.35-.5,2.18s.16,1.55.5,2.18c.34.63.81,1.13,1.41,1.49.6.35,1.28.53,2.06.53.55,0,1.06-.09,1.5-.26.46-.17.85-.41,1.18-.72.34-.31.61-.67.82-1.09l-1.1-.56c-.21.44-.52.79-.91,1.06-.38.27-.86.4-1.42.4-.53,0-1.01-.12-1.42-.35-.42-.25-.74-.6-.98-1.06-.19-.39-.28-.86-.31-1.38h6.26c0-.9-.15-1.67-.45-2.34ZM520.17,85.25c.39-.2.81-.3,1.25-.3s.84.1,1.18.3c.34.2.61.49.82.86.16.3.24.66.28,1.06h-4.79c.03-.4.13-.76.32-1.06.24-.37.56-.66.94-.86Z"/><path class="cls-8" d="M531.96,84.19c-.46-.26-1-.38-1.63-.38-.66,0-1.23.16-1.7.48-.34.23-.6.57-.83.96l-.07-1.25h-1.2v8h1.28v-4.14c0-.91.19-1.61.58-2.1.4-.5.94-.75,1.65-.75.4,0,.77.08,1.09.24.32.15.57.43.75.85.18.42.27,1.02.27,1.81v4.1h1.28v-4.48c.01-.89-.12-1.6-.38-2.14-.26-.54-.62-.94-1.09-1.18Z"/><path class="cls-8" d="M538.76,90.96c-.12.03-.24.05-.37.05-.4,0-.7-.11-.93-.32-.21-.22-.32-.54-.32-.94v-4.61h2.4v-1.14h-2.4v-2.5h-1.28v2.5h-1.39v1.14h1.39v4.74c0,.74.21,1.31.64,1.71.43.41,1.03.61,1.81.61.23,0,.46-.04.69-.11.22-.06.47-.19.75-.37l-.5-1.04c-.2.15-.37.25-.5.29Z"/><rect class="cls-8" x="541.27" y="84" width="1.28" height="8"/><polygon class="cls-8" points="544.35 80.8 542.71 80.8 540.83 82.86 542.29 82.86 544.35 80.8"/><path class="cls-8" d="M547.1,82.08c.19-.25.47-.37.85-.37.12,0,.26.03.43.08.17.05.38.13.62.22l.48-1.01c-.3-.14-.58-.25-.85-.32-.27-.07-.51-.11-.72-.11-.8,0-1.4.21-1.79.64-.38.42-.58,1.04-.58,1.87v.91h-1.47v1.1h1.47v6.9h1.28v-6.9h2.32v-1.1h-2.32v-.82c0-.5.09-.87.27-1.1Z"/><path class="cls-8" d="M551.23,80.54c-.21,0-.4.08-.56.24-.16.15-.24.34-.24.56s.08.4.24.56.35.24.56.24c.22,0,.41-.08.56-.24.16-.16.24-.35.24-.56,0-.22-.08-.41-.24-.56-.15-.16-.34-.24-.56-.24Z"/><rect class="cls-8" x="550.57" y="84" width="1.28" height="8"/><path class="cls-8" d="M558.98,90.61c-.41.27-.87.4-1.39.4s-.99-.13-1.41-.38c-.41-.26-.73-.61-.96-1.06-.22-.46-.34-.98-.34-1.57s.11-1.1.34-1.55c.23-.46.55-.82.94-1.07.41-.26.87-.38,1.39-.38s.99.12,1.39.37c.41.23.71.57.93.99l1.17-.53c-.32-.64-.78-1.14-1.39-1.49-.61-.35-1.3-.53-2.06-.53s-1.47.18-2.08.54c-.61.35-1.08.84-1.42,1.47-.33.63-.5,1.35-.5,2.18s.17,1.55.51,2.18c.34.63.82,1.13,1.42,1.49.61.35,1.31.53,2.1.53s1.47-.19,2.08-.58c.61-.38,1.07-.92,1.39-1.6l-1.17-.53c-.21.48-.53.85-.94,1.12Z"/><path class="cls-8" d="M568.13,84.35c-.6-.36-1.29-.54-2.08-.54s-1.46.18-2.06.54c-.6.35-1.07.84-1.41,1.47-.33.63-.5,1.35-.5,2.18s.17,1.55.51,2.18c.34.63.81,1.13,1.41,1.49.61.35,1.3.53,2.08.53s1.47-.18,2.06-.53c.6-.36,1.06-.86,1.39-1.49.34-.63.51-1.35.51-2.18s-.17-1.55-.51-2.18c-.33-.63-.8-1.12-1.41-1.47ZM568.4,89.57c-.22.45-.53.8-.93,1.06-.4.26-.86.38-1.39.38s-.99-.13-1.41-.38c-.41-.26-.73-.61-.96-1.06-.22-.46-.34-.98-.34-1.57s.11-1.12.34-1.57c.23-.45.55-.8.94-1.06.4-.26.87-.38,1.39-.38s1,.13,1.41.38c.4.26.72.61.94,1.06.24.45.35.97.35,1.57s-.12,1.12-.35,1.57Z"/><path class="cls-8" d="M576.32,87.98c-.35-.26-.79-.45-1.31-.58l-.8-.21c-.45-.12-.79-.27-1.02-.45-.22-.19-.34-.39-.34-.61,0-.37.14-.66.42-.86.28-.21.66-.32,1.15-.32.46,0,.85.08,1.17.24.32.16.55.42.69.78l1.12-.5c-.13-.34-.33-.63-.61-.88-.28-.26-.61-.45-.99-.59-.38-.14-.81-.21-1.28-.21-.98,0-1.72.21-2.22.64-.49.42-.74,1-.74,1.76,0,.49.2.93.61,1.33.4.38.97.67,1.7.86l.77.21c.49.13.86.29,1.1.5.26.2.38.47.38.8,0,.36-.17.65-.51.85-.34.19-.76.29-1.26.29-.44,0-.84-.11-1.2-.34-.36-.22-.63-.52-.82-.88l-1.12.46c.13.34.34.66.62.94.3.29.67.52,1.1.7.44.17.95.26,1.54.26s1.07-.09,1.5-.27c.44-.19.78-.46,1.04-.82.26-.35.38-.77.38-1.25,0-.36-.09-.7-.27-1.02-.18-.32-.45-.6-.8-.85Z"/><path class="cls-8" d="M7.06,194.25c-.55-.3-1.19-.45-1.92-.45H1.49v11.2h1.36v-4.11h2.64c.66,0,1.24-.15,1.74-.45.5-.31.9-.73,1.18-1.26.29-.53.43-1.14.43-1.82s-.16-1.32-.48-1.86c-.31-.53-.75-.95-1.31-1.25ZM6.93,199.02c-.37.43-.85.64-1.44.64h-2.64v-4.62h2.27c.69,0,1.26.21,1.71.64s.67.99.67,1.68-.19,1.23-.58,1.66Z"/><path class="cls-8" d="M16.74,198.9c-.3-.66-.72-1.17-1.26-1.54-.54-.37-1.19-.56-1.94-.56s-1.45.18-2.05.54c-.59.35-1.05.84-1.39,1.47-.33.63-.5,1.36-.5,2.18s.17,1.55.5,2.18c.34.63.81,1.12,1.41,1.49.6.35,1.29.53,2.06.53.55,0,1.06-.09,1.5-.26.46-.17.85-.41,1.18-.72.34-.31.61-.67.82-1.09l-1.1-.56c-.21.44-.52.79-.91,1.06-.38.27-.86.4-1.42.4-.53,0-1.01-.12-1.42-.35-.42-.24-.74-.6-.98-1.06-.19-.39-.28-.86-.31-1.38h6.26c0-.9-.15-1.67-.45-2.34ZM12.28,198.25c.39-.2.81-.3,1.25-.3s.84.1,1.18.3c.34.2.61.49.82.86.16.3.24.66.28,1.06h-4.79c.03-.4.13-.76.32-1.06.25-.37.56-.66.94-.86Z"/><path class="cls-8" d="M24.5,198.41c-.25-.43-.55-.8-.94-1.07-.5-.35-1.09-.53-1.76-.53-.71,0-1.34.18-1.89.53s-.97.84-1.28,1.47c-.3.63-.45,1.36-.45,2.19s.15,1.55.45,2.19c.31.63.74,1.12,1.28,1.47s1.17.53,1.89.53c.67,0,1.26-.18,1.76-.53.39-.27.69-.65.95-1.08l.06,1.41h1.22v-11.2h-1.28v4.61ZM24.18,202.57c-.2.46-.49.82-.85,1.07-.36.26-.78.38-1.25.38-.5,0-.95-.13-1.34-.38-.39-.26-.7-.61-.93-1.07s-.34-.98-.34-1.57.11-1.11.34-1.57.53-.82.91-1.07c.39-.26.84-.38,1.34-.38s.9.13,1.26.38c.36.26.65.61.85,1.07.21.46.32.98.32,1.57s-.11,1.11-.32,1.57Z"/><path class="cls-8" d="M28.59,193.54c-.21,0-.4.08-.56.24-.16.15-.24.34-.24.56s.08.4.24.56c.16.16.35.24.56.24.22,0,.41-.08.56-.24.16-.16.24-.35.24-.56,0-.22-.08-.41-.24-.56-.15-.16-.34-.24-.56-.24Z"/><rect class="cls-8" x="27.94" y="197" width="1.28" height="8"/><path class="cls-8" d="M37.27,198.41c-.25-.43-.55-.8-.94-1.07-.5-.35-1.09-.53-1.76-.53-.71,0-1.34.18-1.89.53s-.97.84-1.28,1.47c-.3.63-.45,1.36-.45,2.19s.15,1.55.45,2.19c.31.63.74,1.12,1.28,1.47s1.17.53,1.89.53c.67,0,1.26-.18,1.76-.53.39-.27.69-.65.95-1.08l.06,1.41h1.22v-11.2h-1.28v4.61ZM36.95,202.57c-.2.46-.49.82-.85,1.07-.36.26-.78.38-1.25.38-.5,0-.95-.13-1.34-.38-.39-.26-.7-.61-.93-1.07s-.34-.98-.34-1.57.11-1.11.34-1.57.53-.82.91-1.07c.39-.26.84-.38,1.34-.38s.9.13,1.26.38c.36.26.65.61.85,1.07.21.46.32.98.32,1.57s-.11,1.11-.32,1.57Z"/><path class="cls-8" d="M46.22,197.35c-.6-.36-1.29-.54-2.08-.54s-1.46.18-2.06.54c-.6.35-1.07.84-1.41,1.47-.33.63-.5,1.36-.5,2.18s.17,1.55.51,2.18c.34.63.81,1.12,1.41,1.49.61.35,1.3.53,2.08.53s1.47-.18,2.06-.53c.6-.36,1.06-.86,1.39-1.49.34-.63.51-1.35.51-2.18s-.17-1.55-.51-2.18c-.33-.63-.8-1.12-1.41-1.47ZM46.49,202.57c-.22.45-.53.8-.93,1.06-.39.26-.86.38-1.39.38s-.99-.13-1.41-.38c-.41-.26-.73-.61-.96-1.06-.22-.46-.34-.98-.34-1.57s.11-1.12.34-1.57c.23-.45.55-.8.94-1.06.41-.26.87-.38,1.39-.38s1,.13,1.41.38c.41.26.72.61.94,1.06.23.45.35.97.35,1.57s-.12,1.12-.35,1.57Z"/><path class="cls-8" d="M52.51,197.96c.46,0,.85.08,1.17.24.32.16.55.42.69.78l1.12-.5c-.13-.34-.33-.64-.61-.88-.28-.26-.61-.45-.99-.59-.38-.14-.81-.21-1.28-.21-.98,0-1.72.21-2.22.64-.49.42-.74,1-.74,1.76,0,.49.2.93.61,1.33.41.38.97.67,1.7.86l.77.21c.49.13.86.29,1.1.5.26.2.38.47.38.8,0,.36-.17.65-.51.85-.34.19-.76.29-1.26.29-.44,0-.84-.11-1.2-.34-.36-.22-.63-.52-.82-.88l-1.12.46c.13.34.34.66.62.94.3.29.67.52,1.1.7.44.17.95.26,1.54.26s1.07-.09,1.5-.27c.44-.19.78-.46,1.04-.82.26-.35.38-.77.38-1.25,0-.36-.09-.7-.27-1.02-.18-.32-.45-.6-.8-.85-.35-.26-.79-.45-1.31-.58l-.8-.21c-.45-.12-.79-.27-1.02-.45-.22-.19-.34-.4-.34-.61,0-.37.14-.66.42-.86.28-.21.66-.32,1.15-.32Z"/><path class="cls-8" d="M66.7,198.41c-.25-.43-.55-.8-.94-1.07-.5-.35-1.09-.53-1.76-.53-.71,0-1.34.18-1.89.53s-.97.84-1.28,1.47c-.3.63-.45,1.36-.45,2.19s.15,1.55.45,2.19c.31.63.74,1.12,1.28,1.47s1.17.53,1.89.53c.67,0,1.26-.18,1.76-.53.39-.27.69-.65.95-1.08l.06,1.41h1.22v-11.2h-1.28v4.61ZM66.38,202.57c-.2.46-.49.82-.85,1.07-.36.26-.78.38-1.25.38-.5,0-.95-.13-1.34-.38-.39-.26-.7-.61-.93-1.07s-.34-.98-.34-1.57.11-1.11.34-1.57.53-.82.91-1.07c.39-.26.84-.38,1.34-.38s.9.13,1.26.38c.36.26.65.61.85,1.07.21.46.32.98.32,1.57s-.11,1.11-.32,1.57Z"/><path class="cls-8" d="M76.73,198.9c-.3-.66-.72-1.17-1.26-1.54-.54-.37-1.19-.56-1.94-.56s-1.45.18-2.05.54c-.59.35-1.05.84-1.39,1.47-.33.63-.5,1.36-.5,2.18s.17,1.55.5,2.18c.34.63.81,1.12,1.41,1.49.6.35,1.29.53,2.06.53.55,0,1.06-.09,1.5-.26.46-.17.85-.41,1.18-.72.34-.31.61-.67.82-1.09l-1.1-.56c-.21.44-.52.79-.91,1.06-.38.27-.86.4-1.42.4-.53,0-1.01-.12-1.42-.35-.42-.24-.74-.6-.98-1.06-.19-.39-.28-.86-.31-1.38h6.26c0-.9-.15-1.67-.45-2.34ZM72.26,198.25c.39-.2.81-.3,1.25-.3s.84.1,1.18.3.61.49.82.86c.16.3.24.66.28,1.06h-4.79c.03-.4.13-.76.32-1.06.25-.37.56-.66.94-.86Z"/><path class="cls-8" d="M88.36,194.25c-.55-.3-1.19-.45-1.92-.45h-3.65v11.2h1.36v-4.11h2.64c.66,0,1.24-.15,1.74-.45.5-.31.9-.73,1.18-1.26.29-.53.43-1.14.43-1.82s-.16-1.32-.48-1.86c-.31-.53-.75-.95-1.31-1.25ZM88.23,199.02c-.37.43-.85.64-1.44.64h-2.64v-4.62h2.27c.69,0,1.26.21,1.71.64s.67.99.67,1.68-.19,1.23-.58,1.66Z"/><path class="cls-8" d="M96.04,197.26c-.48-.3-1.09-.45-1.84-.45-.49,0-.93.08-1.31.22-.38.14-.72.35-1.01.62-.29.27-.53.59-.74.96l1.15.45c.2-.38.46-.66.77-.83.32-.18.7-.27,1.14-.27.48,0,.87.11,1.17.32.3.21.52.53.66.94.09.28.15.63.18,1.01h-2.22c-.97,0-1.73.22-2.27.66-.53.43-.8,1.04-.8,1.86,0,.77.26,1.37.78,1.81.53.43,1.27.64,2.21.64s1.65-.32,2.14-.96c.08-.1.14-.22.2-.33l.05,1.1h1.18l.02-4.34c.01-.84-.11-1.55-.35-2.11-.25-.58-.61-1.01-1.1-1.3ZM95.95,202.94c-.18.36-.44.65-.78.85-.34.19-.74.29-1.2.29-.55,0-.99-.12-1.3-.35-.31-.24-.46-.58-.46-.99,0-.46.15-.81.46-1.06.32-.24.85-.37,1.6-.37h1.97v.32c0,.5-.1.94-.29,1.31Z"/><path class="cls-8" d="M102.82,203.96c-.12.03-.24.05-.37.05-.39,0-.7-.11-.93-.32-.21-.22-.32-.54-.32-.94v-4.61h2.4v-1.14h-2.4v-2.5h-1.28v2.5h-1.39v1.14h1.39v4.74c0,.74.21,1.31.64,1.71.43.41,1.03.61,1.81.61.24,0,.46-.04.69-.11.22-.06.47-.19.75-.37l-.5-1.04c-.2.15-.37.24-.5.29Z"/><path class="cls-8" d="M111.88,198.9c-.3-.66-.72-1.17-1.26-1.54-.54-.37-1.19-.56-1.94-.56s-1.45.18-2.05.54c-.59.35-1.05.84-1.39,1.47-.33.63-.5,1.36-.5,2.18s.17,1.55.5,2.18c.34.63.81,1.12,1.41,1.49.6.35,1.29.53,2.06.53.56,0,1.06-.09,1.5-.26.46-.17.85-.41,1.18-.72.34-.31.61-.67.82-1.09l-1.1-.56c-.21.44-.52.79-.91,1.06-.38.27-.86.4-1.42.4-.53,0-1.01-.12-1.42-.35-.42-.24-.74-.6-.98-1.06-.19-.39-.28-.86-.31-1.38h6.26c0-.9-.15-1.67-.45-2.34ZM107.42,198.25c.39-.2.81-.3,1.25-.3s.84.1,1.18.3c.34.2.61.49.82.86.16.3.24.66.28,1.06h-4.79c.03-.4.13-.76.32-1.06.25-.37.56-.66.94-.86Z"/><path class="cls-8" d="M119.21,197.19c-.46-.26-1-.38-1.63-.38-.66,0-1.23.16-1.7.48-.34.23-.61.57-.83.96l-.07-1.25h-1.2v8h1.28v-4.14c0-.91.19-1.61.58-2.1.39-.5.94-.75,1.65-.75.41,0,.77.08,1.09.24.32.15.57.43.75.85.18.42.27,1.02.27,1.81v4.1h1.28v-4.48c.01-.89-.12-1.6-.38-2.14-.26-.54-.62-.94-1.09-1.18Z"/><path class="cls-8" d="M126,203.96c-.12.03-.24.05-.37.05-.4,0-.7-.11-.93-.32-.21-.22-.32-.54-.32-.94v-4.61h2.4v-1.14h-2.4v-2.5h-1.28v2.5h-1.39v1.14h1.39v4.74c0,.74.21,1.31.64,1.71.43.41,1.03.61,1.81.61.23,0,.46-.04.69-.11.22-.06.47-.19.75-.37l-.5-1.04c-.2.15-.37.24-.5.29Z"/><path class="cls-8" d="M135.06,198.9c-.3-.66-.72-1.17-1.26-1.54-.54-.37-1.19-.56-1.94-.56s-1.45.18-2.05.54c-.59.35-1.05.84-1.39,1.47-.33.63-.5,1.36-.5,2.18s.16,1.55.5,2.18c.34.63.81,1.12,1.41,1.49.6.35,1.28.53,2.06.53.55,0,1.06-.09,1.5-.26.46-.17.85-.41,1.18-.72.34-.31.61-.67.82-1.09l-1.1-.56c-.21.44-.52.79-.91,1.06-.38.27-.86.4-1.42.4-.53,0-1.01-.12-1.42-.35-.42-.24-.74-.6-.98-1.06-.19-.39-.28-.86-.31-1.38h6.26c0-.9-.15-1.67-.45-2.34ZM130.59,198.25c.39-.2.81-.3,1.25-.3s.84.1,1.18.3c.34.2.61.49.82.86.16.3.24.66.28,1.06h-4.79c.03-.4.13-.76.32-1.06.24-.37.56-.66.94-.86Z"/><path class="cls-8" d="M141.61,200.98c-.35-.26-.79-.45-1.31-.58l-.8-.21c-.45-.12-.79-.27-1.02-.45-.22-.19-.34-.4-.34-.61,0-.37.14-.66.42-.86.28-.21.66-.32,1.15-.32.46,0,.85.08,1.17.24.32.16.55.42.69.78l1.12-.5c-.13-.34-.33-.64-.61-.88-.28-.26-.61-.45-.99-.59-.38-.14-.81-.21-1.28-.21-.98,0-1.72.21-2.22.64-.49.42-.74,1-.74,1.76,0,.49.2.93.61,1.33.4.38.97.67,1.7.86l.77.21c.49.13.86.29,1.1.5.26.2.38.47.38.8,0,.36-.17.65-.51.85-.34.19-.76.29-1.26.29-.44,0-.84-.11-1.2-.34-.36-.22-.64-.52-.82-.88l-1.12.46c.13.34.34.66.62.94.3.29.67.52,1.1.7.44.17.95.26,1.54.26s1.07-.09,1.5-.27c.44-.19.78-.46,1.04-.82.26-.35.38-.77.38-1.25,0-.36-.09-.7-.27-1.02-.18-.32-.45-.6-.8-.85Z"/><path class="cls-8" d="M48.86,293.82h5.11l1.28,3.18h1.42l-4.56-11.2h-1.41l-4.56,11.2h1.44l1.28-3.18ZM51.42,287.45l2.07,5.15h-4.13l2.07-5.15Z"/><path class="cls-8" d="M63.4,297h1.28v-4.48c.01-.88-.12-1.6-.38-2.14-.26-.54-.62-.94-1.09-1.18-.46-.26-1-.38-1.63-.38-.66,0-1.23.16-1.7.48-.34.23-.6.57-.83.96l-.07-1.25h-1.2v8h1.28v-4.14c0-.91.19-1.6.58-2.1.39-.5.94-.75,1.65-.75.41,0,.77.08,1.09.24.32.15.57.43.75.85.18.42.27,1.02.27,1.81v4.1Z"/><path class="cls-8" d="M68.01,296.66c.61.35,1.3.53,2.08.53s1.47-.18,2.06-.53c.6-.36,1.06-.86,1.39-1.49.34-.63.51-1.35.51-2.18s-.17-1.55-.51-2.18c-.33-.63-.8-1.12-1.41-1.47-.6-.36-1.29-.54-2.08-.54s-1.46.18-2.06.54c-.6.35-1.07.84-1.41,1.47-.33.63-.5,1.35-.5,2.18s.17,1.55.51,2.18c.34.63.81,1.12,1.41,1.49ZM67.72,291.43c.23-.45.55-.8.94-1.06.41-.26.87-.38,1.39-.38s1,.13,1.41.38c.41.26.72.61.94,1.06.23.45.35.97.35,1.57s-.12,1.12-.35,1.57c-.22.45-.53.8-.93,1.06-.39.26-.86.38-1.39.38s-.99-.13-1.41-.38c-.41-.26-.73-.61-.96-1.06-.22-.46-.34-.98-.34-1.57s.11-1.12.34-1.57Z"/><path class="cls-8" d="M78.42,289.96c.46,0,.85.08,1.17.24.32.16.55.42.69.78l1.12-.5c-.13-.34-.33-.64-.61-.88-.28-.26-.61-.45-.99-.59-.38-.14-.81-.21-1.28-.21-.98,0-1.72.21-2.22.64-.49.42-.74,1-.74,1.76,0,.49.2.93.61,1.33.41.38.97.67,1.7.86l.77.21c.49.13.86.29,1.1.5.26.2.38.47.38.8,0,.36-.17.65-.51.85-.34.19-.76.29-1.26.29-.44,0-.84-.11-1.2-.34-.36-.22-.63-.52-.82-.88l-1.12.46c.13.34.34.66.62.94.3.29.67.52,1.1.7.44.17.95.26,1.54.26s1.07-.09,1.5-.27c.44-.19.78-.46,1.04-.82s.38-.77.38-1.25c0-.36-.09-.7-.27-1.02-.18-.32-.45-.6-.8-.85-.35-.26-.79-.45-1.31-.58l-.8-.21c-.45-.12-.79-.27-1.02-.45-.22-.19-.34-.4-.34-.61,0-.37.14-.66.42-.86.28-.21.66-.32,1.15-.32Z"/><path class="cls-8" d="M92.61,290.41c-.25-.43-.55-.8-.94-1.07-.5-.35-1.09-.53-1.76-.53-.71,0-1.34.18-1.89.53s-.97.84-1.28,1.47c-.3.63-.45,1.36-.45,2.19s.15,1.55.45,2.19c.31.63.74,1.12,1.28,1.47s1.17.53,1.89.53c.67,0,1.26-.18,1.76-.53.39-.27.69-.65.95-1.08l.06,1.41h1.22v-11.2h-1.28v4.61ZM92.29,294.57c-.2.46-.49.82-.85,1.07-.36.26-.78.38-1.25.38-.5,0-.95-.13-1.34-.38-.39-.26-.7-.61-.93-1.07s-.34-.98-.34-1.57.11-1.11.34-1.57c.22-.46.53-.82.91-1.07.39-.26.84-.38,1.34-.38s.9.13,1.26.38c.36.26.65.61.85,1.07.21.46.32.98.32,1.57s-.11,1.11-.32,1.57Z"/><path class="cls-8" d="M102.16,296.22c.34-.31.61-.67.82-1.09l-1.1-.56c-.21.44-.52.79-.91,1.06-.38.27-.86.4-1.42.4-.53,0-1.01-.12-1.42-.35-.42-.24-.74-.6-.98-1.06-.19-.39-.28-.86-.31-1.38h6.26c0-.9-.15-1.67-.45-2.34-.3-.66-.72-1.17-1.26-1.54-.54-.37-1.19-.56-1.94-.56s-1.45.18-2.05.54c-.59.35-1.05.84-1.39,1.47-.33.63-.5,1.35-.5,2.18s.17,1.55.5,2.18c.34.63.81,1.12,1.41,1.49.6.35,1.29.53,2.06.53.55,0,1.06-.08,1.5-.26.46-.17.85-.41,1.18-.72ZM98.18,290.25c.39-.2.81-.3,1.25-.3s.84.1,1.18.3c.34.2.61.49.82.86.16.3.24.66.28,1.06h-4.79c.03-.4.13-.76.32-1.06.25-.37.56-.66.94-.86Z"/><path class="cls-8" d="M114.24,294.57c-.21.44-.52.79-.91,1.06-.38.27-.86.4-1.42.4-.53,0-1.01-.12-1.42-.35-.42-.24-.74-.6-.98-1.06-.19-.39-.28-.86-.31-1.38h6.26c0-.9-.15-1.67-.45-2.34-.3-.66-.72-1.17-1.26-1.54-.54-.37-1.19-.56-1.94-.56s-1.45.18-2.05.54c-.59.35-1.05.84-1.39,1.47-.33.63-.5,1.35-.5,2.18s.17,1.55.5,2.18c.34.63.81,1.12,1.41,1.49.6.35,1.29.53,2.06.53.55,0,1.06-.08,1.5-.26.46-.17.85-.41,1.18-.72.34-.31.61-.67.82-1.09l-1.1-.56ZM110.55,290.25c.4-.2.81-.3,1.25-.3s.84.1,1.18.3c.34.2.61.49.82.86.16.3.24.66.28,1.06h-4.79c.03-.4.13-.76.32-1.06.25-.37.56-.66.94-.86Z"/><polygon class="cls-8" points="121.62 297 123.16 297 120.25 292.86 122.97 289 121.45 289 119.53 291.83 117.6 289 116.09 289 118.82 292.85 115.88 297 117.43 297 119.54 293.89 121.62 297"/><path class="cls-8" d="M130.22,289.34c-.54-.35-1.17-.53-1.89-.53-.67,0-1.26.18-1.78.53-.38.27-.68.64-.93,1.07l-.08-1.41h-1.2v11.2h1.28v-4.61c.25.43.55.8.93,1.07.51.35,1.1.53,1.78.53.72,0,1.34-.18,1.89-.53s.97-.84,1.26-1.47c.31-.64.46-1.37.46-2.19s-.15-1.56-.46-2.19c-.3-.63-.72-1.12-1.26-1.47ZM130.3,294.57c-.22.46-.53.82-.93,1.07-.38.26-.83.38-1.33.38-.47,0-.89-.13-1.25-.38-.36-.26-.65-.61-.86-1.07-.2-.46-.3-.98-.3-1.57s.1-1.11.3-1.57c.21-.46.5-.82.86-1.07.37-.26.8-.38,1.26-.38.5,0,.95.13,1.34.38.4.26.7.61.91,1.07.22.46.34.98.34,1.57s-.12,1.11-.35,1.57Z"/><path class="cls-8" d="M140.23,290.9c-.3-.66-.72-1.17-1.26-1.54-.54-.37-1.19-.56-1.94-.56s-1.45.18-2.05.54c-.59.35-1.05.84-1.39,1.47-.33.63-.5,1.35-.5,2.18s.17,1.55.5,2.18c.34.63.81,1.12,1.41,1.49.6.35,1.29.53,2.06.53.55,0,1.06-.08,1.5-.26.46-.17.85-.41,1.18-.72.34-.31.61-.67.82-1.09l-1.1-.56c-.21.44-.52.79-.91,1.06-.38.27-.86.4-1.42.4-.53,0-1.01-.12-1.42-.35-.42-.24-.74-.6-.98-1.06-.19-.39-.28-.86-.31-1.38h6.26c0-.9-.15-1.67-.45-2.34ZM135.77,290.25c.4-.2.81-.3,1.25-.3s.84.1,1.18.3c.34.2.61.49.82.86.16.3.24.66.28,1.06h-4.79c.03-.4.13-.76.32-1.06.25-.37.56-.66.94-.86Z"/><path class="cls-8" d="M143.42,290.47v-1.47h-1.28v8h1.28v-4.4c0-.61.14-1.09.42-1.44.28-.35.63-.6,1.06-.75.44-.16.89-.24,1.36-.24v-1.2c-.58,0-1.13.13-1.65.4-.48.24-.87.61-1.18,1.1Z"/><path class="cls-8" d="M148.12,285.54c-.21,0-.4.08-.56.24-.16.15-.24.34-.24.56s.08.4.24.56c.16.16.35.24.56.24.22,0,.41-.08.56-.24.16-.16.24-.35.24-.56,0-.22-.08-.41-.24-.56-.15-.16-.34-.24-.56-.24Z"/><rect class="cls-8" x="147.46" y="289" width="1.28" height="8"/><path class="cls-8" d="M157.61,290.9c-.3-.66-.72-1.17-1.26-1.54-.54-.37-1.19-.56-1.94-.56s-1.45.18-2.05.54c-.59.35-1.05.84-1.39,1.47-.33.63-.5,1.35-.5,2.18s.16,1.55.5,2.18c.34.63.81,1.12,1.41,1.49.6.35,1.29.53,2.06.53.55,0,1.06-.08,1.5-.26.46-.17.85-.41,1.18-.72.34-.31.61-.67.82-1.09l-1.1-.56c-.21.44-.52.79-.91,1.06-.38.27-.86.4-1.42.4-.53,0-1.01-.12-1.42-.35-.42-.24-.74-.6-.98-1.06-.19-.39-.28-.86-.31-1.38h6.26c0-.9-.15-1.67-.45-2.34ZM153.15,290.25c.39-.2.81-.3,1.25-.3s.84.1,1.18.3c.34.2.61.49.82.86.16.3.24.66.28,1.06h-4.79c.03-.4.13-.76.32-1.06.24-.37.56-.66.94-.86Z"/><polygon class="cls-8" points="154.41 286.41 155.73 287.69 157.14 287.69 155.2 285.61 155.18 285.61 153.63 285.61 153.61 285.61 151.68 287.69 153.09 287.69 154.41 286.41"/><path class="cls-8" d="M164.96,289.19c-.46-.26-1-.38-1.63-.38-.66,0-1.23.16-1.7.48-.34.23-.61.57-.83.96l-.07-1.25h-1.2v8h1.28v-4.14c0-.91.19-1.6.58-2.1.39-.5.94-.75,1.65-.75.41,0,.77.08,1.09.24.32.15.57.43.75.85.18.42.27,1.02.27,1.81v4.1h1.28v-4.48c.01-.88-.12-1.6-.38-2.14-.26-.54-.62-.94-1.09-1.18Z"/><path class="cls-8" d="M173.22,295.61c-.41.27-.87.4-1.39.4s-.99-.13-1.41-.38c-.41-.26-.73-.61-.96-1.06-.22-.46-.34-.98-.34-1.57s.11-1.1.34-1.55c.23-.46.55-.82.94-1.07.41-.26.87-.38,1.39-.38s.99.12,1.39.37c.41.23.71.57.93.99l1.17-.53c-.32-.64-.78-1.14-1.39-1.49-.61-.35-1.3-.53-2.06-.53s-1.47.18-2.08.54c-.61.35-1.08.84-1.42,1.47-.33.63-.5,1.35-.5,2.18s.17,1.55.51,2.18c.34.63.82,1.12,1.42,1.49.61.35,1.31.53,2.1.53s1.47-.19,2.08-.58c.61-.38,1.07-.92,1.39-1.6l-1.17-.53c-.21.48-.53.85-.94,1.12Z"/><rect class="cls-8" x="176.87" y="289" width="1.28" height="8"/><path class="cls-8" d="M177.53,285.54c-.21,0-.4.08-.56.24-.16.15-.24.34-.24.56s.08.4.24.56c.16.16.35.24.56.24.22,0,.41-.08.56-.24.16-.16.24-.35.24-.56,0-.22-.08-.41-.24-.56-.15-.16-.34-.24-.56-.24Z"/><path class="cls-8" d="M186.13,290.55c-.25-.58-.61-1.01-1.1-1.3-.48-.3-1.09-.45-1.84-.45-.49,0-.93.08-1.31.22-.38.14-.72.35-1.01.62-.29.27-.53.59-.74.96l1.15.45c.2-.38.46-.66.77-.83.32-.18.7-.27,1.14-.27.48,0,.87.11,1.17.32.3.21.52.53.66.94.09.28.14.63.17,1.01h-2.22c-.97,0-1.73.22-2.27.66-.53.43-.8,1.04-.8,1.86,0,.77.26,1.37.78,1.81.53.43,1.27.64,2.21.64s1.65-.32,2.14-.96c.08-.1.14-.22.2-.33l.05,1.1h1.18l.02-4.34c.01-.84-.11-1.55-.35-2.11ZM184.93,294.94c-.18.36-.44.65-.78.85-.34.19-.74.29-1.2.29-.55,0-.99-.12-1.3-.35-.31-.24-.46-.58-.46-.99,0-.46.15-.81.46-1.06.32-.24.85-.37,1.6-.37h1.97v.32c0,.5-.1.94-.29,1.31Z"/><polygon class="cls-8" points="48.85 309.8 47.49 309.8 47.49 321 54.13 321 54.13 319.77 48.85 319.77 48.85 309.8"/><path class="cls-8" d="M59.94,313.26c-.48-.3-1.09-.45-1.84-.45-.49,0-.93.08-1.31.22-.38.14-.72.35-1.01.62-.29.27-.53.59-.74.96l1.15.45c.2-.38.46-.66.77-.83.32-.18.7-.27,1.14-.27.48,0,.87.11,1.17.32.3.21.52.53.66.94.09.28.15.63.18,1.01h-2.22c-.97,0-1.73.22-2.27.66-.53.43-.8,1.04-.8,1.86,0,.77.26,1.37.78,1.81.53.43,1.27.64,2.21.64s1.65-.32,2.14-.96c.08-.1.14-.22.2-.33l.05,1.1h1.18l.02-4.34c.01-.84-.11-1.55-.35-2.11-.25-.58-.61-1.01-1.1-1.3ZM59.85,318.94c-.18.36-.44.65-.78.85-.34.19-.74.29-1.2.29-.55,0-.99-.12-1.3-.35-.31-.24-.46-.58-.46-.99,0-.46.15-.81.46-1.06.32-.24.85-.37,1.6-.37h1.97v.32c0,.5-.1.94-.29,1.31Z"/><path class="cls-8" d="M69.14,313.34c-.54-.35-1.17-.53-1.89-.53-.67,0-1.26.18-1.78.53-.38.27-.68.64-.93,1.07v-4.6h-1.28v11.2h1.22l.06-1.41c.25.43.55.81.93,1.07.51.35,1.1.53,1.78.53.71,0,1.34-.18,1.89-.53s.97-.84,1.26-1.47c.31-.64.46-1.37.46-2.19s-.15-1.56-.46-2.19c-.3-.63-.72-1.12-1.26-1.47ZM69.22,318.57c-.22.46-.53.82-.93,1.07-.38.26-.83.38-1.33.38-.47,0-.89-.13-1.25-.38-.36-.26-.65-.61-.86-1.07-.2-.46-.3-.98-.3-1.57s.1-1.11.3-1.57c.21-.46.5-.82.86-1.07.37-.26.79-.38,1.26-.38.5,0,.95.13,1.34.38.39.26.7.61.91,1.07.22.46.34.98.34,1.57s-.12,1.11-.35,1.57Z"/><path class="cls-8" d="M78.07,313.35c-.6-.36-1.29-.54-2.08-.54s-1.46.18-2.06.54c-.6.35-1.07.84-1.41,1.47-.33.63-.5,1.35-.5,2.18s.17,1.55.51,2.18c.34.63.81,1.12,1.41,1.49.61.35,1.3.53,2.08.53s1.47-.18,2.06-.53c.6-.36,1.06-.86,1.39-1.49.34-.63.51-1.35.51-2.18s-.17-1.55-.51-2.18c-.33-.63-.8-1.12-1.41-1.47ZM78.34,318.57c-.22.45-.53.8-.93,1.06-.39.26-.86.38-1.39.38s-.99-.13-1.41-.38c-.41-.26-.73-.61-.96-1.06-.22-.46-.34-.98-.34-1.57s.11-1.12.34-1.57c.23-.45.55-.8.94-1.06.41-.26.87-.38,1.39-.38s1,.13,1.41.38c.41.26.72.61.94,1.06.23.45.35.97.35,1.57s-.12,1.12-.35,1.57Z"/><path class="cls-8" d="M82.89,314.47v-1.47h-1.28v8h1.28v-4.4c0-.61.14-1.09.42-1.44.28-.35.63-.6,1.06-.75.44-.16.89-.24,1.36-.24v-1.2c-.58,0-1.13.13-1.65.4-.48.24-.86.61-1.18,1.1Z"/><path class="cls-8" d="M91.52,313.26c-.48-.3-1.09-.45-1.84-.45-.49,0-.93.08-1.31.22-.38.14-.72.35-1.01.62-.29.27-.53.59-.74.96l1.15.45c.2-.38.46-.66.77-.83.32-.18.7-.27,1.14-.27.48,0,.87.11,1.17.32.3.21.52.53.66.94.09.28.15.63.18,1.01h-2.22c-.97,0-1.73.22-2.27.66-.53.43-.8,1.04-.8,1.86,0,.77.26,1.37.78,1.81.53.43,1.27.64,2.21.64s1.65-.32,2.14-.96c.08-.1.14-.22.2-.33l.05,1.1h1.18l.02-4.34c.01-.84-.11-1.55-.35-2.11-.25-.58-.61-1.01-1.1-1.3ZM91.43,318.94c-.18.36-.44.65-.78.85-.34.19-.74.29-1.2.29-.55,0-.99-.12-1.3-.35-.31-.24-.46-.58-.46-.99,0-.46.15-.81.46-1.06.32-.24.85-.37,1.6-.37h1.97v.32c0,.5-.1.94-.29,1.31Z"/><path class="cls-8" d="M98.3,319.96c-.12.03-.24.05-.37.05-.39,0-.7-.11-.93-.32-.21-.22-.32-.54-.32-.94v-4.61h2.4v-1.14h-2.4v-2.5h-1.28v2.5h-1.39v1.14h1.39v4.74c0,.74.21,1.31.64,1.71.43.41,1.03.61,1.81.61.23,0,.46-.04.69-.11.22-.06.47-.19.75-.37l-.5-1.04c-.2.15-.37.24-.5.29Z"/><path class="cls-8" d="M106.27,313.35c-.6-.36-1.29-.54-2.08-.54s-1.46.18-2.06.54c-.6.35-1.07.84-1.41,1.47-.33.63-.5,1.35-.5,2.18s.17,1.55.51,2.18c.34.63.81,1.12,1.41,1.49.61.35,1.3.53,2.08.53s1.47-.18,2.06-.53c.6-.36,1.06-.86,1.39-1.49.34-.63.51-1.35.51-2.18s-.17-1.55-.51-2.18c-.33-.63-.8-1.12-1.41-1.47ZM106.54,318.57c-.22.45-.53.8-.93,1.06-.4.26-.86.38-1.39.38s-.99-.13-1.41-.38c-.41-.26-.73-.61-.96-1.06-.22-.46-.34-.98-.34-1.57s.11-1.12.34-1.57c.23-.45.55-.8.94-1.06.41-.26.87-.38,1.39-.38s1,.13,1.41.38c.41.26.72.61.94,1.06.23.45.35.97.35,1.57s-.12,1.12-.35,1.57Z"/><path class="cls-8" d="M111.09,314.47v-1.47h-1.28v8h1.28v-4.4c0-.61.14-1.09.42-1.44s.63-.6,1.06-.75c.44-.16.89-.24,1.36-.24v-1.2c-.58,0-1.12.13-1.65.4-.48.24-.86.61-1.18,1.1Z"/><path class="cls-8" d="M115.79,309.54c-.21,0-.4.08-.56.24-.16.15-.24.34-.24.56s.08.4.24.56.35.24.56.24c.22,0,.41-.08.56-.24.16-.16.24-.35.24-.56,0-.22-.08-.41-.24-.56-.15-.16-.34-.24-.56-.24Z"/><rect class="cls-8" x="115.14" y="313" width="1.28" height="8"/><path class="cls-8" d="M123.29,313.26c-.48-.3-1.09-.45-1.84-.45-.49,0-.93.08-1.31.22-.38.14-.72.35-1.01.62-.29.27-.53.59-.74.96l1.15.45c.2-.38.46-.66.77-.83.32-.18.7-.27,1.14-.27.48,0,.87.11,1.17.32s.52.53.66.94c.1.28.15.63.18,1.01h-2.22c-.97,0-1.73.22-2.27.66-.53.43-.8,1.04-.8,1.86,0,.77.26,1.37.78,1.81.53.43,1.27.64,2.21.64s1.65-.32,2.14-.96c.08-.1.14-.22.2-.33l.05,1.1h1.18l.02-4.34c.01-.84-.11-1.55-.35-2.11-.24-.58-.61-1.01-1.1-1.3ZM123.19,318.94c-.18.36-.44.65-.78.85-.34.19-.74.29-1.2.29-.55,0-.99-.12-1.3-.35-.31-.24-.46-.58-.46-.99,0-.46.16-.81.46-1.06.32-.24.85-.37,1.6-.37h1.97v.32c0,.5-.1.94-.29,1.31Z"/><rect class="cls-8" x="126.61" y="309.8" width="1.28" height="11.2"/><path class="cls-8" d="M470.7,187.8h-1.38l-4.56,11.2h1.44l1.28-3.18h5.11l1.28,3.18h1.42l-4.56-11.2h-.03ZM467.97,194.6l2.07-5.15,2.07,5.15h-4.13Z"/><path class="cls-8" d="M481.83,191.19c-.46-.26-1-.38-1.63-.38-.66,0-1.23.16-1.7.48-.34.23-.61.57-.83.96l-.07-1.25h-1.2v8h1.28v-4.14c0-.91.19-1.61.58-2.1.39-.5.94-.75,1.65-.75.4,0,.77.08,1.09.24.32.15.57.43.75.85.18.42.27,1.02.27,1.81v4.1h1.28v-4.48c.01-.89-.12-1.6-.38-2.14-.26-.54-.62-.94-1.09-1.18Z"/><path class="cls-8" d="M490.75,191.35c-.6-.36-1.29-.54-2.08-.54s-1.46.18-2.06.54c-.6.35-1.07.84-1.41,1.47-.33.63-.5,1.36-.5,2.18s.17,1.55.51,2.18c.34.63.81,1.12,1.41,1.49.61.35,1.3.53,2.08.53s1.47-.18,2.06-.53c.6-.36,1.06-.86,1.39-1.49.34-.63.51-1.35.51-2.18s-.17-1.55-.51-2.18c-.33-.63-.8-1.12-1.41-1.47ZM491.02,196.57c-.22.45-.53.8-.93,1.06-.4.26-.86.38-1.39.38s-.99-.13-1.41-.38c-.41-.26-.73-.61-.96-1.06-.22-.46-.34-.98-.34-1.57s.11-1.12.34-1.57c.23-.45.55-.8.94-1.06.4-.26.87-.38,1.39-.38s1,.13,1.41.38c.4.26.72.61.94,1.06.23.45.35.97.35,1.57s-.12,1.12-.35,1.57Z"/><path class="cls-8" d="M497.04,191.96c.46,0,.85.08,1.17.24.32.16.55.42.69.78l1.12-.5c-.13-.34-.33-.64-.61-.88-.28-.26-.61-.45-.99-.59-.38-.14-.81-.21-1.28-.21-.98,0-1.72.21-2.22.64-.49.42-.74,1-.74,1.76,0,.49.2.93.61,1.33.4.38.97.67,1.7.86l.77.21c.49.13.86.29,1.1.5.26.2.38.47.38.8,0,.36-.17.65-.51.85-.34.19-.76.29-1.26.29-.44,0-.84-.11-1.2-.34-.36-.22-.64-.52-.82-.88l-1.12.46c.13.34.34.66.62.94.3.29.67.52,1.1.7.44.17.95.26,1.54.26s1.07-.09,1.5-.27c.44-.19.78-.46,1.04-.82s.38-.77.38-1.25c0-.36-.09-.7-.27-1.02-.18-.32-.45-.6-.8-.85-.35-.26-.79-.45-1.31-.58l-.8-.21c-.45-.12-.79-.27-1.02-.45-.22-.19-.34-.4-.34-.61,0-.37.14-.66.42-.86.28-.21.66-.32,1.15-.32Z"/><path class="cls-8" d="M511.23,192.41c-.25-.43-.55-.8-.94-1.07-.5-.35-1.09-.53-1.76-.53-.71,0-1.34.18-1.89.53-.54.35-.97.84-1.28,1.47-.3.63-.45,1.36-.45,2.19s.15,1.55.45,2.19c.31.63.74,1.12,1.28,1.47.54.35,1.17.53,1.89.53.67,0,1.26-.18,1.76-.53.39-.27.69-.65.95-1.08l.06,1.41h1.22v-11.2h-1.28v4.61ZM510.91,196.57c-.2.46-.48.82-.85,1.07-.36.26-.78.38-1.25.38-.5,0-.95-.13-1.34-.38-.39-.26-.7-.61-.93-1.07s-.34-.98-.34-1.57.11-1.11.34-1.57.53-.82.91-1.07c.39-.26.84-.38,1.34-.38s.9.13,1.26.38c.36.26.65.61.85,1.07.21.46.32.98.32,1.57s-.11,1.11-.32,1.57Z"/><path class="cls-8" d="M521.26,192.9c-.3-.66-.72-1.17-1.26-1.54-.54-.37-1.19-.56-1.94-.56s-1.45.18-2.05.54c-.59.35-1.05.84-1.39,1.47-.33.63-.5,1.36-.5,2.18s.17,1.55.5,2.18c.34.63.81,1.12,1.41,1.49.6.35,1.29.53,2.06.53.55,0,1.06-.09,1.5-.26.46-.17.85-.41,1.18-.72.34-.31.61-.67.82-1.09l-1.1-.56c-.21.44-.52.79-.91,1.06-.38.27-.86.4-1.42.4-.53,0-1.01-.12-1.42-.35-.42-.24-.74-.6-.98-1.06-.19-.39-.28-.86-.31-1.38h6.26c0-.9-.15-1.67-.45-2.34ZM516.79,192.25c.4-.2.81-.3,1.25-.3s.84.1,1.18.3.61.49.82.86c.16.3.24.66.28,1.06h-4.79c.03-.4.13-.76.32-1.06.24-.37.56-.66.94-.86Z"/><path class="cls-8" d="M533.63,192.9c-.3-.66-.72-1.17-1.26-1.54-.54-.37-1.19-.56-1.94-.56s-1.45.18-2.05.54c-.59.35-1.05.84-1.39,1.47-.33.63-.5,1.36-.5,2.18s.16,1.55.5,2.18c.34.63.81,1.12,1.41,1.49.6.35,1.28.53,2.06.53.55,0,1.06-.09,1.5-.26.46-.17.85-.41,1.18-.72.34-.31.61-.67.82-1.09l-1.1-.56c-.21.44-.52.79-.91,1.06-.38.27-.86.4-1.42.4-.53,0-1.01-.12-1.42-.35-.42-.24-.74-.6-.98-1.06-.19-.39-.28-.86-.31-1.38h6.26c0-.9-.15-1.67-.45-2.34ZM529.16,192.25c.39-.2.81-.3,1.25-.3s.84.1,1.18.3c.34.2.61.49.82.86.16.3.24.66.28,1.06h-4.79c.03-.4.13-.76.32-1.06.24-.37.56-.66.94-.86Z"/><polygon class="cls-8" points="541.58 191 540.06 191 538.15 193.83 536.22 191 534.7 191 537.44 194.85 534.49 199 536.04 199 538.15 195.89 540.23 199 541.77 199 538.86 194.86 541.58 191"/><path class="cls-8" d="M548.84,191.34c-.54-.35-1.17-.53-1.89-.53-.67,0-1.26.18-1.78.53-.38.27-.68.64-.93,1.07l-.08-1.41h-1.2v11.2h1.28v-4.6c.25.43.55.8.93,1.07.51.35,1.1.53,1.78.53.71,0,1.34-.18,1.89-.53.54-.35.97-.84,1.26-1.47.31-.64.46-1.37.46-2.19s-.16-1.56-.46-2.19c-.3-.63-.72-1.12-1.26-1.47ZM548.92,196.57c-.22.46-.53.82-.93,1.07-.38.26-.83.38-1.33.38-.47,0-.89-.13-1.25-.38-.36-.26-.65-.61-.86-1.07-.2-.46-.3-.98-.3-1.57s.1-1.11.3-1.57c.21-.46.5-.82.86-1.07.37-.26.79-.38,1.26-.38.5,0,.95.13,1.34.38.39.26.7.61.91,1.07.22.46.34.98.34,1.57s-.12,1.11-.35,1.57Z"/><path class="cls-8" d="M557.19,198.94c.46-.17.85-.41,1.18-.72.34-.31.61-.67.82-1.09l-1.1-.56c-.21.44-.52.79-.91,1.06-.38.27-.86.4-1.42.4-.53,0-1.01-.12-1.42-.35-.42-.24-.74-.6-.98-1.06-.19-.39-.28-.86-.31-1.38h6.26c0-.9-.15-1.67-.45-2.34-.3-.66-.72-1.17-1.26-1.54-.54-.37-1.19-.56-1.94-.56s-1.45.18-2.05.54c-.59.35-1.05.84-1.39,1.47-.33.63-.5,1.36-.5,2.18s.17,1.55.5,2.18c.34.63.81,1.12,1.41,1.49.6.35,1.29.53,2.06.53.55,0,1.06-.09,1.5-.26ZM554.39,192.25c.39-.2.81-.3,1.25-.3s.84.1,1.18.3.61.49.82.86c.16.3.24.66.28,1.06h-4.79c.03-.4.13-.76.32-1.06.24-.37.56-.66.94-.86Z"/><path class="cls-8" d="M564.86,190.97c-.58,0-1.12.13-1.65.4-.48.24-.86.61-1.18,1.1v-1.47h-1.28v8h1.28v-4.4c0-.61.14-1.09.42-1.44.28-.35.63-.6,1.06-.75.44-.16.89-.24,1.36-.24v-1.2Z"/><rect class="cls-8" x="566.08" y="191" width="1.28" height="8"/><path class="cls-8" d="M566.73,189.14c.22,0,.41-.08.56-.24.16-.16.24-.35.24-.56,0-.22-.08-.41-.24-.56-.15-.16-.34-.24-.56-.24s-.4.08-.56.24c-.16.15-.24.34-.24.56s.08.4.24.56c.16.16.35.24.56.24Z"/><path class="cls-8" d="M576.23,192.9c-.3-.66-.72-1.17-1.26-1.54-.54-.37-1.19-.56-1.94-.56s-1.45.18-2.05.54c-.59.35-1.05.84-1.39,1.47-.33.63-.5,1.36-.5,2.18s.16,1.55.5,2.18c.34.63.81,1.12,1.41,1.49.6.35,1.28.53,2.06.53.56,0,1.06-.09,1.5-.26.46-.17.85-.41,1.18-.72.34-.31.61-.67.82-1.09l-1.1-.56c-.21.44-.52.79-.91,1.06-.38.27-.86.4-1.42.4-.53,0-1.01-.12-1.42-.35-.42-.24-.74-.6-.98-1.06-.19-.39-.28-.86-.31-1.38h6.26c0-.9-.15-1.67-.45-2.34ZM571.77,192.25c.39-.2.81-.3,1.25-.3s.84.1,1.18.3.61.49.82.86c.16.3.24.66.28,1.06h-4.79c.03-.4.13-.76.32-1.06.25-.37.56-.66.94-.86Z"/><polygon class="cls-8" points="573.02 188.41 574.34 189.69 575.75 189.69 573.81 187.61 573.8 187.61 572.24 187.61 572.23 187.61 570.29 189.69 571.7 189.69 573.02 188.41"/><path class="cls-8" d="M583.57,191.19c-.46-.26-1-.38-1.63-.38-.66,0-1.23.16-1.7.48-.34.23-.6.57-.83.96l-.07-1.25h-1.2v8h1.28v-4.14c0-.91.19-1.61.58-2.1.4-.5.94-.75,1.65-.75.41,0,.77.08,1.09.24.32.15.57.43.75.85.18.42.27,1.02.27,1.81v4.1h1.28v-4.48c.01-.89-.12-1.6-.38-2.14-.26-.54-.62-.94-1.09-1.18Z"/><path class="cls-8" d="M588.38,198.66c.61.35,1.31.53,2.1.53s1.47-.19,2.08-.58c.61-.38,1.07-.92,1.39-1.6l-1.17-.53c-.21.48-.53.85-.94,1.12-.4.27-.87.4-1.39.4s-.99-.13-1.41-.38c-.4-.26-.72-.61-.96-1.06-.22-.46-.34-.98-.34-1.57s.11-1.1.34-1.55c.23-.46.55-.82.94-1.07.41-.26.87-.38,1.39-.38s.99.12,1.39.37c.41.23.72.57.93.99l1.17-.53c-.32-.64-.78-1.14-1.39-1.49-.61-.35-1.3-.53-2.06-.53s-1.47.18-2.08.54c-.61.35-1.08.84-1.42,1.47-.33.63-.5,1.36-.5,2.18s.17,1.55.51,2.18c.34.63.82,1.12,1.42,1.49Z"/><path class="cls-8" d="M596.14,189.14c.22,0,.41-.08.56-.24.16-.16.24-.35.24-.56,0-.22-.08-.41-.24-.56-.15-.16-.34-.24-.56-.24s-.4.08-.56.24c-.16.15-.24.34-.24.56s.08.4.24.56c.16.16.35.24.56.24Z"/><rect class="cls-8" x="595.48" y="191" width="1.28" height="8"/><path class="cls-8" d="M599.3,194.89c-.53.43-.8,1.04-.8,1.86,0,.77.26,1.37.78,1.81.53.43,1.27.64,2.21.64s1.65-.32,2.14-.96c.08-.1.14-.22.2-.33l.05,1.1h1.18l.02-4.34c.01-.84-.11-1.55-.35-2.11-.24-.58-.61-1.01-1.1-1.3-.48-.3-1.09-.45-1.84-.45-.49,0-.93.08-1.31.22-.38.14-.72.35-1.01.62-.29.27-.53.59-.74.96l1.15.45c.2-.38.46-.66.77-.83.32-.18.7-.27,1.14-.27.48,0,.87.11,1.17.32.3.21.52.53.66.94.1.28.15.63.18,1.01h-2.22c-.97,0-1.73.22-2.27.66ZM603.83,195.3v.32c0,.5-.1.94-.29,1.31-.18.36-.44.65-.78.85-.34.19-.74.29-1.2.29-.56,0-.99-.12-1.3-.35-.31-.24-.46-.58-.46-.99,0-.46.15-.81.46-1.06.32-.24.85-.37,1.6-.37h1.97Z"/><path class="cls-8" d="M562.8,216.9c-.3-.66-.72-1.17-1.26-1.54-.54-.37-1.19-.56-1.94-.56s-1.45.18-2.05.54c-.59.35-1.05.84-1.39,1.47-.33.63-.5,1.36-.5,2.18s.16,1.55.5,2.18c.34.63.81,1.12,1.41,1.49.6.35,1.28.53,2.06.53.55,0,1.06-.09,1.5-.26.46-.17.85-.41,1.18-.72.34-.31.61-.67.82-1.09l-1.1-.56c-.21.44-.52.79-.91,1.06-.38.27-.86.4-1.42.4-.53,0-1.01-.12-1.42-.35-.42-.24-.74-.6-.98-1.06-.19-.39-.28-.86-.31-1.38h6.26c0-.9-.15-1.67-.45-2.34ZM558.34,216.25c.39-.2.81-.3,1.25-.3s.84.1,1.18.3c.34.2.61.49.82.86.16.3.24.66.28,1.06h-4.79c.03-.4.13-.76.32-1.06.25-.37.56-.66.94-.86Z"/><path class="cls-8" d="M573.41,214.81c-.6,0-1.11.16-1.55.46-.43.31-.75.76-.98,1.34-.2-.61-.53-1.06-.99-1.36-.45-.3-.99-.45-1.63-.45-.51,0-.96.11-1.34.34-.38.22-.7.55-.94.98l-.06-1.12h-1.2v8h1.28v-4.14c0-.91.18-1.61.53-2.1.35-.5.84-.75,1.46-.75.36,0,.68.08.96.24.29.15.51.43.67.85.17.42.26,1.02.26,1.81v4.1h1.28v-4.14c0-.91.18-1.61.53-2.1.35-.5.84-.75,1.47-.75.36,0,.68.08.96.24.28.15.5.43.66.85.17.42.26,1.02.26,1.81v4.1h1.28v-4.58c.01-1.22-.25-2.12-.77-2.72-.51-.6-1.22-.9-2.11-.9Z"/><rect class="cls-8" x="582.31" y="211.8" width="1.36" height="11.2"/><path class="cls-8" d="M593.76,220.74c.46-.78.69-1.66.69-2.66h-1.3c0,.59-.1,1.12-.3,1.62-.04.11-.11.21-.16.31l-1.54-1.86-.94-1.13c.33-.24.64-.47.91-.71.38-.33.69-.68.91-1.04.22-.37.34-.77.34-1.18,0-.51-.12-.96-.37-1.33-.25-.37-.59-.66-1.02-.86-.43-.21-.91-.32-1.44-.32-.5,0-.96.11-1.36.32-.4.21-.72.51-.96.88-.23.36-.35.78-.35,1.26,0,.29.05.57.16.83.11.27.26.53.45.8.2.27.43.55.67.85l.25.31-.51.35c-.36.26-.7.54-1.01.85s-.54.64-.72,1.01c-.18.37-.27.79-.27,1.26,0,.56.14,1.07.42,1.52.29.45.68.79,1.17,1.04.49.24,1.05.37,1.68.37,1.03,0,1.95-.22,2.74-.66.3-.16.56-.35.81-.56l.83.99h1.63l-1.6-1.94c.07-.1.15-.2.21-.31ZM588.58,213.1c.28-.26.61-.38.99-.38.44,0,.79.12,1.07.37.29.24.43.58.43.99,0,.31-.09.59-.27.85-.18.24-.41.47-.67.67-.22.18-.45.34-.68.51l-.27-.32c-.29-.34-.53-.64-.72-.88-.19-.26-.29-.54-.29-.86,0-.37.13-.69.4-.94ZM590.74,221.78c-.48.18-1,.27-1.55.27s-1.04-.16-1.41-.5c-.36-.33-.54-.76-.54-1.28,0-.37.07-.69.21-.94.14-.27.32-.5.54-.69.22-.2.45-.38.69-.54l.5-.35.9,1.08,1.83,2.21c-.34.31-.72.56-1.16.74Z"/><path class="cls-8" d="M604.73,214.49c-.46-.84-1.09-1.5-1.9-1.97-.8-.48-1.73-.72-2.78-.72h-3.41v11.2h3.41c1.06,0,1.98-.24,2.78-.72.81-.48,1.45-1.14,1.9-1.98.46-.84.69-1.81.69-2.9s-.23-2.07-.69-2.91ZM603.74,219.1c-.2.52-.49.99-.86,1.39-.36.41-.78.72-1.26.94-.48.21-1,.32-1.57.32h-2.05v-8.7h2.05c.57,0,1.09.11,1.57.34.48.21.9.52,1.26.93.37.4.66.88.86,1.41.21.52.32,1.08.32,1.68s-.11,1.16-.32,1.7Z"/><rect class="cls-4" x="308.5" y="133.5" width="132" height="132" rx="63.5" ry="63.5"/><rect class="cls-5" x="308.5" y="133.5" width="132" height="132" rx="63.5" ry="63.5"/><path class="cls-3" d="M344.96,207.74c.59-.88,1.41-1.72,2.48-2.52l5.48-4.16c1.52-1.23,2.68-2.49,3.48-3.8s1.2-2.69,1.2-4.16c0-1.55-.39-2.92-1.16-4.12-.75-1.23-1.8-2.19-3.16-2.88-1.36-.72-2.97-1.08-4.84-1.08-1.6,0-3.05.32-4.36.96s-2.39,1.48-3.24,2.52c-.83,1.04-1.4,2.16-1.72,3.36l3.44.68c.24-.77.63-1.49,1.16-2.16.53-.69,1.21-1.24,2.04-1.64.83-.43,1.79-.64,2.88-.64s2.09.23,2.92.68c.83.45,1.47,1.07,1.92,1.84.45.75.68,1.59.68,2.52,0,.64-.15,1.31-.44,2-.29.67-.71,1.32-1.24,1.96-.51.61-1.11,1.16-1.8,1.64l-5.8,4.36c-.99.75-1.83,1.55-2.52,2.4-.67.85-1.19,1.72-1.56,2.6-.35.85-.52,1.72-.52,2.6v2.8h17.72v-3h-14c.08-.96.4-1.88.96-2.76Z"/><polygon class="cls-3" points="406.69 200.18 399.09 200.18 399.09 192.5 396.25 192.5 396.25 200.18 388.57 200.18 388.57 203.02 396.25 203.02 396.25 210.66 399.09 210.66 399.09 203.02 406.69 203.02 406.69 200.18"/><path class="cls-3" d="M378.42,186.9c-1.63-1.25-3.52-1.88-5.68-1.88s-4.07.63-5.72,1.88c-1.63,1.23-2.91,2.93-3.84,5.12-.93,2.16-1.4,4.65-1.4,7.48s.47,5.33,1.4,7.52c.93,2.16,2.23,3.87,3.88,5.12,1.65,1.23,3.55,1.84,5.68,1.84s4.07-.61,5.72-1.84c1.65-1.25,2.95-2.96,3.88-5.12.93-2.19,1.4-4.69,1.4-7.52s-.48-5.32-1.44-7.48c-.93-2.19-2.23-3.89-3.88-5.12ZM379.42,205.42c-.64,1.71-1.55,3.05-2.72,4.04-1.15.99-2.47,1.48-3.96,1.48s-2.79-.49-3.96-1.48c-1.15-.99-2.05-2.33-2.72-4.04-.64-1.71-.96-3.68-.96-5.92s.32-4.21.96-5.92c.67-1.73,1.57-3.08,2.72-4.04,1.15-.99,2.47-1.48,3.96-1.48s2.81.49,3.96,1.48c1.17.96,2.08,2.31,2.72,4.04.67,1.71,1,3.68,1,5.92s-.33,4.21-1,5.92Z"/><path class="cls-6" d="M335.5,167h274.5"/></svg>