<svg width="42" height="85" viewBox="0 0 42 85" fill="none" xmlns="http://www.w3.org/2000/svg">
<path d="M42 0V63.75C42 75.4861 32.5981 85 21 85C9.40193 85 0 75.4861 0 63.75V0H42Z" fill="#5FB8A9"/>
<path d="M10.2471 29.3301H31.7582V59.7816C31.7582 65.7879 26.9408 70.6626 21.0051 70.6626C15.0695 70.6626 10.2521 65.7879 10.2521 59.7816V29.3301H10.2471Z" fill="white"/>
<path d="M16.6888 22.351C20.2464 22.351 23.1304 19.4326 23.1304 15.8326C23.1304 12.2326 20.2464 9.31421 16.6888 9.31421C13.1311 9.31421 10.2471 12.2326 10.2471 15.8326C10.2471 19.4326 13.1311 22.351 16.6888 22.351Z" fill="white"/>
<path d="M28.8834 22.356C30.2612 22.356 31.3781 21.2258 31.3781 19.8316C31.3781 18.4375 30.2612 17.3073 28.8834 17.3073C27.5056 17.3073 26.3887 18.4375 26.3887 19.8316C26.3887 21.2258 27.5056 22.356 28.8834 22.356Z" fill="white"/>
</svg>
